<?xml version="1.0" standalone="no"?><!DOCTYPE svg PUBLIC "-//W3C//DTD SVG 1.1//EN" "http://www.w3.org/Graphics/SVG/1.1/DTD/svg11.dtd"><svg height="1024" node-id="1" sillyvg="true" template-height="1024" template-width="1024" version="1.1" viewBox="0 0 1024 1024" width="1024" xmlns="http://www.w3.org/2000/svg" xmlns:xlink="http://www.w3.org/1999/xlink"><defs node-id="118"></defs><path d="M 0.00 0.00 L 1024.00 0.00 L 1024.00 1024.00 L 0.00 1024.00 Z" fill="#ffffff" fill-opacity="0" fill-rule="nonzero" id="矩形" node-id="5" stroke="none" target-height="1024" target-width="1024" target-x="0" target-y="0"></path><g node-id="120"><path d="M 715.30 307.00 L 713.60 278.50 L 713.40 277.80 L 712.80 277.20 L 710.70 276.20 L 709.20 278.90 L 707.70 280.80 L 705.80 282.20 L 699.50 285.10 L 696.40 288.20 L 695.00 290.50 L 691.30 296.70 L 691.30 297.80 L 691.70 298.90 L 693.00 300.70 L 692.60 301.30 L 689.90 303.40 L 691.50 310.40 L 689.20 311.60 L 689.00 306.70 L 688.70 306.00 L 688.00 305.70 L 531.40 305.60 L 530.40 305.80 L 529.80 306.60 L 529.30 309.50 L 529.70 311.10 L 530.10 311.60 L 530.80 311.80 L 593.40 312.00 L 593.20 313.90 L 593.40 314.90 L 593.90 315.40 L 594.60 315.60 L 599.00 314.50 L 605.30 316.30 L 613.10 316.90 L 615.10 317.40 L 617.00 318.30 L 533.20 318.30 L 530.50 318.90 L 529.70 319.70 L 529.20 321.20 L 529.30 322.30 L 529.90 323.20 L 530.80 323.90 L 531.90 324.10 L 637.90 324.70 L 632.10 325.50 L 631.20 325.80 L 630.70 326.60 L 630.70 327.50 L 631.10 328.40 L 632.20 329.30 L 643.60 329.40 L 644.00 330.40 L 644.30 330.50 L 657.20 330.80 L 530.20 330.90 L 529.40 331.20 L 529.10 332.10 L 529.40 335.80 L 529.80 336.40 L 530.40 336.70 L 647.30 336.90 L 650.70 337.60 L 650.70 338.20 L 648.80 338.90 L 648.10 339.30 L 648.10 339.60 L 650.60 341.10 L 651.00 341.60 L 644.00 342.20 L 643.70 342.50 L 643.90 343.00 L 644.30 343.20 L 658.70 343.50 L 530.90 343.50 L 530.30 343.70 L 529.90 344.20 L 529.20 346.10 L 529.20 347.50 L 529.60 348.50 L 530.30 349.20 L 531.60 349.70 L 587.50 350.00 L 566.60 352.10 L 565.00 353.00 L 564.40 354.70 L 564.60 355.60 L 565.90 356.80 L 568.60 357.30 L 570.50 358.60 L 576.40 358.80 L 578.70 359.50 L 581.00 360.70 L 581.30 361.00 L 580.60 362.00 L 580.80 362.10 L 586.30 362.40 L 531.90 362.60 L 530.60 362.90 L 529.60 363.60 L 529.10 364.60 L 529.20 365.90 L 530.00 367.90 L 530.70 368.70 L 531.70 368.90 L 682.00 368.90 L 674.90 369.40 L 659.20 369.20 L 657.00 369.80 L 658.80 370.70 L 658.30 372.20 L 663.80 372.70 L 673.60 372.50 L 684.80 373.50 L 685.30 373.80 L 685.50 375.10 L 631.00 375.10 L 630.30 375.30 L 630.00 376.00 L 629.80 379.80 L 630.00 380.40 L 630.60 380.60 L 669.40 380.70 L 657.90 381.50 L 660.00 382.70 L 662.40 383.10 L 659.40 384.00 L 659.10 384.40 L 659.40 385.20 L 663.00 385.30 L 665.10 386.10 L 669.50 385.50 L 673.10 385.50 L 679.40 386.60 L 687.30 387.20 L 530.10 387.30 L 529.40 388.40 L 529.40 392.40 L 529.60 393.10 L 530.30 393.30 L 624.10 393.50 L 616.60 394.50 L 615.00 395.10 L 613.80 396.10 L 613.30 397.00 L 613.00 400.00 L 530.40 399.60 L 529.40 400.10 L 529.80 405.60 L 530.10 406.10 L 530.60 406.30 L 612.20 406.40 L 603.70 409.80 L 601.40 411.30 L 600.20 412.50 L 599.50 413.80 L 599.00 415.90 L 590.50 425.40 L 587.30 431.10 L 584.20 435.50 L 584.20 436.30 L 584.90 437.90 L 586.00 439.10 L 587.80 440.10 L 587.50 441.30 L 590.60 441.60 L 592.20 442.20 L 593.10 442.90 L 593.40 444.00 L 512.30 444.00 L 512.90 388.20 L 513.00 332.40 L 512.70 276.60 L 512.40 274.30 L 511.00 269.60 L 509.70 268.10 L 508.40 268.00 L 508.00 268.30 L 509.60 271.80 L 510.30 275.10 L 510.40 387.40 L 511.10 443.60 L 511.80 444.10 L 510.80 444.60 L 510.50 445.30 L 510.10 479.70 L 509.40 485.40 L 508.80 487.00 L 506.80 489.50 L 503.80 490.90 L 501.60 491.20 L 472.50 491.10 L 473.90 486.20 L 475.40 479.40 L 475.80 472.50 L 475.50 470.30 L 474.10 467.10 L 473.00 465.90 L 471.40 465.20 L 469.30 464.90 L 359.40 464.90 L 356.40 465.20 L 354.00 466.10 L 352.10 467.40 L 350.40 469.10 L 349.10 471.20 L 347.90 473.70 L 346.70 477.70 L 344.20 491.00 L 341.80 490.50 L 339.90 489.70 L 338.40 488.40 L 337.30 486.60 L 336.50 484.30 L 336.20 481.10 L 335.90 460.70 L 336.10 410.20 L 340.80 407.50 L 345.10 403.10 L 353.50 401.90 L 354.50 401.00 L 354.80 399.60 L 354.20 398.40 L 350.30 395.80 L 350.20 391.40 L 349.80 391.10 L 349.10 391.20 L 345.50 392.50 L 345.10 392.30 L 344.60 389.30 L 343.90 387.40 L 342.70 385.80 L 341.10 384.60 L 339.00 383.70 L 336.20 383.20 L 335.60 316.10 L 336.00 277.30 L 336.50 273.40 L 337.20 271.10 L 338.30 269.30 L 339.80 267.90 L 341.60 266.90 L 344.30 266.20 L 348.10 266.00 L 505.40 266.00 L 506.10 265.70 L 506.30 265.00 L 506.40 236.90 L 506.70 233.80 L 507.40 231.60 L 508.40 230.10 L 509.40 229.30 L 512.70 228.10 L 515.20 227.90 L 576.40 227.00 L 637.80 227.10 L 705.20 227.50 L 710.40 228.40 L 711.80 229.00 L 714.00 231.10 L 715.20 234.30 L 715.40 236.80 L 715.30 307.00 Z M 591.80 262.90 L 591.50 262.30 L 590.80 262.00 L 536.90 262.10 L 536.20 262.40 L 535.90 263.00 L 535.90 265.30 L 536.20 265.90 L 536.90 266.20 L 590.80 266.10 L 591.50 265.80 L 591.80 265.20 L 591.80 262.90 Z M 667.70 263.40 L 667.40 262.60 L 666.50 262.20 L 602.20 262.20 L 601.30 262.60 L 601.00 263.40 L 601.10 265.30 L 602.20 266.10 L 666.50 266.10 L 667.60 265.30 L 667.70 263.40 Z M 591.70 284.50 L 591.30 283.40 L 590.20 282.90 L 537.30 282.90 L 536.30 283.40 L 535.80 284.50 L 535.90 286.30 L 536.70 287.10 L 537.30 287.20 L 590.20 287.20 L 590.80 287.10 L 591.60 286.30 L 591.70 284.50 Z M 667.70 284.90 L 667.20 283.60 L 665.90 283.10 L 602.40 283.10 L 601.10 283.60 L 600.50 284.90 L 600.70 286.00 L 601.10 286.60 L 602.40 287.20 L 665.90 287.20 L 667.20 286.60 L 667.70 284.90 Z M 362.30 325.10 L 362.20 327.70 L 362.70 329.90 L 362.00 332.90 L 362.90 334.70 L 364.10 335.20 L 438.70 335.70 L 439.50 335.90 L 440.40 337.90 L 440.10 339.10 L 439.00 339.70 L 365.30 339.80 L 362.80 340.40 L 361.80 341.80 L 362.30 344.40 L 362.90 345.10 L 363.90 345.40 L 411.00 345.70 L 458.60 345.40 L 464.40 346.10 L 465.10 346.40 L 465.30 347.20 L 465.20 349.20 L 464.90 349.70 L 463.80 350.20 L 414.20 350.20 L 364.60 349.80 L 363.40 350.00 L 362.50 350.70 L 361.90 351.70 L 362.20 356.70 L 362.50 357.30 L 363.20 357.60 L 372.80 358.10 L 472.40 358.10 L 473.00 357.90 L 473.20 357.30 L 473.20 343.50 L 473.00 342.10 L 472.40 341.20 L 471.50 340.60 L 470.00 340.40 L 452.60 340.50 L 451.80 340.20 L 451.50 339.40 L 451.60 332.70 L 451.30 330.90 L 450.80 329.50 L 450.00 328.30 L 448.40 327.40 L 448.30 325.30 L 451.60 325.00 L 452.10 324.80 L 452.30 324.20 L 452.30 309.70 L 451.60 308.00 L 449.90 307.30 L 365.50 307.50 L 363.50 308.60 L 362.40 310.60 L 362.30 325.10 Z M 410.30 370.70 L 463.20 370.70 L 464.00 371.00 L 464.40 371.80 L 464.60 375.30 L 464.00 376.20 L 453.20 376.30 L 442.70 376.80 L 442.00 377.10 L 441.80 377.80 L 441.90 382.80 L 442.90 383.30 L 472.70 383.30 L 473.10 383.00 L 473.50 382.10 L 473.30 366.30 L 472.80 365.00 L 471.50 364.40 L 364.10 364.50 L 363.40 364.60 L 362.10 365.40 L 361.50 366.80 L 361.70 368.30 L 362.10 368.90 L 363.20 369.50 L 366.10 370.00 L 373.90 370.50 L 396.90 370.50 L 397.70 370.80 L 398.00 371.50 L 398.30 373.50 L 398.00 374.40 L 397.20 374.80 L 364.10 375.20 L 362.10 376.20 L 361.70 377.00 L 361.70 378.20 L 362.30 380.00 L 363.30 380.60 L 408.30 380.50 L 409.20 379.50 L 409.30 378.80 L 409.40 371.60 L 409.70 371.00 L 410.30 370.70 Z M 624.80 376.50 L 624.40 375.40 L 623.20 374.90 L 530.80 375.10 L 530.20 375.20 L 529.40 376.00 L 529.30 379.40 L 529.70 380.50 L 530.90 380.90 L 623.30 380.80 L 623.90 380.70 L 624.70 379.80 L 624.80 376.50 Z M 439.00 386.80 L 438.50 385.60 L 437.30 385.10 L 363.60 385.00 L 362.40 385.50 L 361.80 386.70 L 362.00 392.30 L 362.30 392.90 L 363.60 393.40 L 437.20 393.50 L 437.90 393.40 L 438.80 392.50 L 439.00 386.80 Z M 438.90 403.90 L 438.40 402.70 L 437.20 402.20 L 363.60 402.20 L 362.30 402.70 L 361.80 403.90 L 362.00 409.00 L 362.30 409.60 L 363.60 410.10 L 437.20 410.10 L 437.90 410.00 L 438.80 409.00 L 438.90 403.90 Z M 429.40 422.60 L 463.20 423.20 L 464.10 423.60 L 464.50 424.60 L 464.40 427.20 L 463.20 428.30 L 363.70 428.20 L 362.30 428.80 L 361.80 430.20 L 362.20 435.50 L 363.10 436.70 L 472.30 436.40 L 473.00 436.20 L 473.30 435.50 L 473.70 421.60 L 473.60 420.50 L 472.50 418.60 L 470.70 417.60 L 429.60 417.70 L 428.80 418.00 L 428.60 418.70 L 428.40 421.50 L 428.70 422.30 L 429.40 422.60 Z" fill="#e1e6ff" fill-rule="nonzero" group-id="1" id="形状" node-id="7" stroke="none" target-height="264.2" target-width="379.80002" target-x="335.6" target-y="227"></path><g node-id="121"><path d="M 536.50 262.10 L 591.10 262.00 L 591.80 262.60 L 591.60 265.90 L 536.50 266.20 L 535.90 265.60 L 535.90 262.70 L 536.50 262.10 Z" fill="#5a4fa6" fill-rule="nonzero" group-id="1,2" id="矩形" node-id="8" stroke="none" target-height="4.200012" target-width="55.899963" target-x="535.9" target-y="262"></path></g><path d="M 601.70 262.20 L 667.00 262.20 L 667.50 262.40 L 667.70 263.00 L 667.50 265.80 L 667.00 266.10 L 601.70 266.10 L 601.20 265.80 L 601.00 265.30 L 601.00 263.00 L 601.20 262.40 L 601.70 262.20 Z" fill="#3a35bc" fill-rule="nonzero" group-id="1" id="矩形" node-id="9" stroke="none" target-height="3.899994" target-width="66.70001" target-x="601" target-y="262.2"></path><path d="M 512.30 444.00 L 511.20 443.90 L 511.10 443.60 L 510.20 331.30 L 510.30 275.10 L 509.60 271.80 L 508.00 268.30 L 508.40 268.00 L 509.70 268.10 L 511.00 269.60 L 512.40 274.30 L 512.70 276.60 L 513.00 332.40 L 512.90 388.20 L 512.30 444.00 Z" fill="#cbd2ff" fill-rule="nonzero" group-id="1" id="路径" node-id="10" stroke="none" target-height="176" target-width="5" target-x="508" target-y="268"></path><path d="M 715.30 307.00 L 715.40 436.10 L 715.20 439.00 L 714.50 441.00 L 713.60 442.20 L 712.20 443.10 L 710.20 443.80 L 702.60 444.40 L 698.70 445.20 L 698.10 441.10 L 697.00 437.40 L 695.50 434.00 L 693.60 430.80 L 691.20 427.80 L 688.40 425.00 L 685.00 422.40 L 681.00 420.00 L 680.20 419.90 L 679.50 420.20 L 677.30 422.10 L 675.80 424.00 L 674.90 425.80 L 674.40 429.80 L 675.60 434.80 L 680.30 443.80 L 593.40 444.00 L 593.10 442.90 L 592.20 442.20 L 590.60 441.60 L 587.50 441.30 L 587.80 440.10 L 586.00 439.10 L 584.90 437.90 L 584.20 436.30 L 584.60 434.90 L 587.30 431.10 L 590.50 425.40 L 599.00 415.90 L 599.50 413.80 L 600.20 412.50 L 601.40 411.30 L 603.70 409.80 L 612.60 406.10 L 613.10 403.50 L 613.00 398.30 L 613.80 396.10 L 615.00 395.10 L 616.60 394.50 L 624.10 393.50 L 687.50 393.60 L 688.10 393.40 L 688.40 392.80 L 688.90 389.90 L 688.70 388.30 L 688.20 387.50 L 687.30 387.20 L 679.40 386.60 L 673.10 385.50 L 669.50 385.50 L 665.10 386.10 L 663.00 385.30 L 659.40 385.20 L 659.10 384.80 L 659.40 384.00 L 662.40 383.10 L 660.00 382.70 L 657.90 381.50 L 669.40 380.70 L 688.40 380.60 L 689.30 380.20 L 689.40 379.60 L 689.30 376.20 L 688.80 375.20 L 685.50 375.10 L 685.30 373.80 L 684.80 373.50 L 673.60 372.50 L 663.80 372.70 L 658.70 372.40 L 658.30 372.20 L 658.80 370.70 L 657.00 369.80 L 660.70 369.10 L 674.90 369.40 L 688.40 368.50 L 689.10 368.20 L 689.30 367.50 L 688.90 363.10 L 688.70 362.60 L 688.20 362.50 L 586.30 362.40 L 580.80 362.10 L 580.60 362.00 L 581.30 361.00 L 581.00 360.70 L 578.70 359.50 L 576.40 358.80 L 573.90 358.50 L 570.50 358.60 L 568.60 357.30 L 565.90 356.80 L 564.60 355.60 L 564.40 354.70 L 565.00 353.00 L 566.60 352.10 L 587.50 350.00 L 687.30 349.90 L 688.30 349.70 L 688.80 349.20 L 688.90 348.20 L 688.60 344.40 L 688.40 343.90 L 687.90 343.70 L 644.30 343.20 L 643.90 343.00 L 643.70 342.50 L 645.30 342.00 L 651.00 341.60 L 650.60 341.10 L 648.10 339.60 L 648.10 339.30 L 648.80 338.90 L 650.70 338.20 L 650.70 337.60 L 647.30 336.90 L 688.30 336.40 L 688.90 336.20 L 689.10 335.60 L 688.90 331.20 L 688.20 331.00 L 644.30 330.50 L 644.00 330.40 L 643.60 329.40 L 632.20 329.30 L 631.10 328.40 L 630.70 327.50 L 630.70 326.60 L 631.20 325.80 L 632.10 325.50 L 637.90 324.70 L 688.60 324.20 L 689.40 323.80 L 689.60 322.90 L 688.30 318.50 L 617.00 318.30 L 615.10 317.40 L 613.10 316.90 L 605.30 316.30 L 599.00 314.50 L 594.60 315.60 L 593.90 315.40 L 593.40 314.90 L 593.20 313.90 L 593.40 312.00 L 688.20 312.00 L 691.50 310.40 L 689.90 303.40 L 692.60 301.30 L 693.00 300.70 L 691.70 298.90 L 691.30 297.80 L 691.30 296.70 L 696.40 288.20 L 699.50 285.10 L 705.80 282.20 L 707.70 280.80 L 709.20 278.90 L 710.70 276.20 L 712.80 277.20 L 713.40 277.80 L 713.60 278.50 L 715.30 307.00 Z" fill="#cbd2ff" fill-rule="nonzero" group-id="1" id="路径" node-id="11" stroke="none" target-height="169" target-width="151" target-x="564.4" target-y="276.2"></path><path d="M 536.80 282.90 L 590.80 282.90 L 591.50 283.20 L 591.70 283.90 L 591.70 286.20 L 591.50 286.90 L 590.80 287.20 L 536.80 287.20 L 536.10 286.90 L 535.80 286.20 L 535.80 283.90 L 536.10 283.20 L 536.80 282.90 Z" fill="#3a35bc" fill-rule="nonzero" group-id="1" id="矩形" node-id="12" stroke="none" target-height="4.3000183" target-width="55.900024" target-x="535.8" target-y="282.9"></path><path d="M 601.70 283.10 L 666.50 283.10 L 667.40 283.40 L 667.70 284.30 L 667.60 286.40 L 667.00 287.10 L 601.70 287.20 L 600.90 286.80 L 600.50 286.00 L 600.60 283.80 L 601.70 283.10 Z" fill="#3a35bc" fill-rule="nonzero" group-id="1" id="矩形" node-id="13" stroke="none" target-height="4.100006" target-width="67.20001" target-x="600.5" target-y="283.1"></path><path d="M 117.30 351.70 L 114.00 357.10 L 110.50 361.90 L 106.80 366.20 L 102.80 369.90 L 98.60 373.10 L 94.20 375.90 L 89.50 378.10 L 84.70 379.80 L 79.80 380.90 L 74.80 381.60 L 69.70 381.70 L 64.60 381.30 L 59.70 380.40 L 54.70 379.00 L 50.00 377.10 L 45.50 374.70 L 41.10 371.70 L 34.60 365.80 L 29.50 359.20 L 26.80 354.40 L 24.70 349.30 L 23.20 343.90 L 22.30 338.40 L 21.90 332.70 L 22.00 326.10 L 20.90 324.90 L 18.90 325.00 L 20.70 319.50 L 22.80 314.50 L 25.20 310.00 L 28.00 306.00 L 31.20 302.20 L 34.60 298.80 L 38.30 295.80 L 42.20 293.20 L 46.40 291.00 L 50.60 289.20 L 55.00 287.70 L 64.10 286.10 L 73.30 285.90 L 77.90 286.50 L 82.40 287.40 L 86.80 288.70 L 91.10 290.40 L 95.30 292.50 L 99.20 295.00 L 102.90 297.90 L 106.40 301.20 L 109.70 304.90 L 112.50 308.90 L 115.00 313.30 L 117.20 318.10 L 119.00 323.60 L 120.10 328.50 L 120.60 333.30 L 120.60 338.00 L 120.10 342.60 L 119.00 347.20 L 117.30 351.70 Z M 63.50 303.00 L 59.90 303.10 L 56.40 303.70 L 53.00 304.70 L 49.80 306.10 L 46.80 307.80 L 44.10 309.90 L 41.60 312.30 L 39.40 314.90 L 37.50 317.90 L 36.00 321.00 L 34.90 324.30 L 34.20 327.90 L 34.80 328.80 L 35.40 328.90 L 35.80 328.30 L 37.40 323.80 L 39.30 319.80 L 41.50 316.20 L 44.10 312.90 L 47.10 310.20 L 50.40 307.90 L 53.20 306.60 L 59.60 304.70 L 64.10 304.10 L 64.10 303.40 L 63.50 303.00 Z M 58.30 354.60 L 60.80 356.40 L 65.80 358.60 L 68.30 359.10 L 71.70 359.30 L 74.90 359.00 L 78.10 358.10 L 81.10 356.70 L 83.80 354.90 L 86.20 352.70 L 88.30 350.10 L 89.90 347.30 L 91.00 344.10 L 91.60 340.70 L 91.60 337.20 L 91.00 333.40 L 89.90 330.50 L 88.40 327.70 L 86.50 325.30 L 84.20 323.40 L 82.40 322.30 L 80.50 321.60 L 77.80 321.20 L 77.70 321.90 L 78.60 325.20 L 78.10 326.40 L 77.10 327.20 L 73.10 327.50 L 67.80 326.90 L 66.30 326.40 L 65.10 325.60 L 64.50 324.50 L 64.70 322.60 L 65.60 320.50 L 62.30 321.70 L 59.90 323.00 L 56.00 326.50 L 54.00 329.30 L 52.50 332.40 L 51.50 335.60 L 51.10 339.00 L 51.30 342.40 L 52.10 345.80 L 53.10 348.20 L 56.20 352.60 L 58.30 354.60 Z" fill="#ecf6fe" fill-rule="nonzero" group-id="1" id="形状" node-id="14" stroke="none" target-height="95.80002" target-width="101.7" target-x="18.9" target-y="285.9"></path><path d="M 1001.60 334.90 L 993.30 335.50 L 993.20 341.60 L 992.70 346.60 L 991.60 351.30 L 990.20 355.80 L 988.20 360.10 L 985.80 364.10 L 983.20 367.80 L 980.10 371.10 L 976.70 374.20 L 973.10 376.90 L 969.30 379.20 L 965.30 381.10 L 961.10 382.60 L 956.80 383.70 L 952.40 384.40 L 947.90 384.70 L 943.50 384.40 L 939.00 383.70 L 934.60 382.50 L 930.30 380.70 L 926.10 378.50 L 922.20 375.70 L 918.30 372.30 L 914.50 368.20 L 911.80 364.40 L 909.40 360.40 L 907.60 356.20 L 906.10 351.70 L 905.10 346.90 L 904.40 335.60 L 895.70 334.80 L 897.30 326.10 L 899.70 320.10 L 902.50 314.70 L 905.60 309.80 L 909.10 305.50 L 913.00 301.40 L 917.20 297.90 L 921.50 294.90 L 926.10 292.40 L 930.90 290.30 L 935.80 288.70 L 940.80 287.60 L 945.90 287.00 L 951.00 286.90 L 956.00 287.30 L 961.10 288.20 L 966.10 289.60 L 970.90 291.50 L 975.60 293.90 L 980.10 296.90 L 984.40 300.50 L 988.30 304.40 L 992.00 308.90 L 995.40 314.10 L 998.40 319.90 L 999.80 323.30 L 1000.80 326.90 L 1001.40 330.80 L 1001.60 334.90 Z M 940.40 345.00 L 935.60 355.00 L 936.20 357.40 L 937.00 358.40 L 938.00 359.10 L 940.00 359.70 L 948.40 353.10 L 949.10 352.90 L 949.70 353.20 L 954.50 357.70 L 956.00 358.70 L 957.40 359.30 L 959.20 359.20 L 960.90 357.90 L 961.40 356.90 L 961.20 353.80 L 956.60 343.90 L 957.30 343.50 L 961.00 343.60 L 964.70 343.20 L 966.30 342.60 L 967.50 341.70 L 968.30 340.00 L 968.40 338.70 L 967.90 337.10 L 965.40 334.20 L 963.60 332.90 L 956.00 328.90 L 961.10 319.80 L 961.70 316.90 L 961.50 315.70 L 960.90 314.30 L 960.10 313.60 L 959.20 313.30 L 957.60 313.60 L 953.90 315.80 L 949.30 319.80 L 948.70 319.60 L 942.40 314.10 L 941.30 313.40 L 940.10 313.30 L 938.90 313.60 L 937.90 314.30 L 937.20 315.40 L 936.60 317.60 L 937.30 321.30 L 941.00 328.00 L 941.20 329.00 L 940.60 329.80 L 933.00 334.20 L 931.20 335.70 L 929.90 337.20 L 929.00 339.60 L 929.10 340.80 L 929.60 342.10 L 930.50 343.10 L 931.70 343.70 L 939.80 344.00 L 940.40 344.30 L 940.40 345.00 Z" fill="#ecf6fe" fill-rule="nonzero" group-id="1" id="形状" node-id="15" stroke="none" target-height="97.80002" target-width="105.89996" target-x="895.7" target-y="286.9"></path><path d="M 34.20 327.90 L 34.90 324.30 L 36.00 321.00 L 37.50 317.90 L 39.40 314.90 L 41.60 312.30 L 44.10 309.90 L 46.80 307.80 L 49.80 306.10 L 53.00 304.70 L 56.40 303.70 L 59.90 303.10 L 63.50 303.00 L 64.10 303.40 L 64.10 304.10 L 59.60 304.70 L 53.20 306.60 L 50.40 307.90 L 47.10 310.20 L 44.10 312.90 L 41.50 316.20 L 39.30 319.80 L 35.40 328.90 L 34.80 328.80 L 34.20 327.90 Z" fill="#5a4fa6" fill-rule="nonzero" group-id="1" id="路径" node-id="16" stroke="none" target-height="25.899994" target-width="29.899998" target-x="34.2" target-y="303"></path><path d="M 689.20 311.60 L 688.20 312.00 L 530.80 311.80 L 530.10 311.60 L 529.70 311.10 L 529.30 309.50 L 529.80 306.60 L 530.40 305.80 L 531.40 305.60 L 688.00 305.70 L 688.70 306.00 L 689.00 306.70 L 689.20 311.60 Z" fill="#fdfdfd" fill-rule="nonzero" group-id="1" id="路径" node-id="17" stroke="none" target-height="6.399994" target-width="159.90002" target-x="529.3" target-y="305.6"></path><path d="M 448.30 325.30 L 362.30 325.10 L 362.40 310.60 L 363.50 308.60 L 364.40 307.90 L 366.60 307.30 L 450.90 307.50 L 452.10 308.80 L 452.30 309.70 L 452.30 324.20 L 452.10 324.80 L 451.60 325.00 L 448.30 325.30 Z" fill="#5a4fa6" fill-rule="nonzero" group-id="1" id="路径" node-id="18" stroke="none" target-height="18" target-width="90" target-x="362.3" target-y="307.3"></path><path d="M 873.90 406.00 L 869.30 404.40 L 864.60 403.10 L 859.80 402.40 L 854.90 402.00 L 849.70 402.10 L 844.40 402.60 L 841.00 400.90 L 838.10 398.60 L 835.50 395.90 L 831.40 389.40 L 829.70 385.70 L 827.70 379.90 L 826.20 374.10 L 823.90 363.10 L 824.40 361.70 L 827.00 360.10 L 828.60 358.50 L 829.80 356.60 L 830.50 354.60 L 830.90 352.60 L 830.70 350.60 L 830.20 348.70 L 829.30 347.10 L 827.90 345.70 L 826.30 344.70 L 824.20 344.20 L 821.50 344.30 L 818.60 345.50 L 816.40 347.70 L 814.50 350.40 L 813.40 351.10 L 810.40 351.50 L 807.80 351.40 L 805.40 350.70 L 803.10 349.50 L 800.50 346.90 L 800.10 337.60 L 799.90 337.00 L 798.90 336.30 L 779.40 343.60 L 776.30 342.90 L 773.80 341.90 L 771.70 340.60 L 769.90 339.10 L 767.90 336.60 L 766.50 333.90 L 765.70 331.00 L 765.50 328.00 L 765.70 324.90 L 766.50 321.90 L 767.80 319.00 L 769.50 316.50 L 771.80 314.10 L 773.80 312.70 L 778.50 310.70 L 781.30 310.20 L 786.60 310.40 L 794.70 312.20 L 800.10 312.70 L 802.80 312.30 L 817.20 308.80 L 823.60 308.80 L 829.40 310.00 L 831.70 311.00 L 834.50 312.70 L 836.90 314.90 L 838.90 317.40 L 842.00 323.40 L 843.30 326.90 L 847.40 341.50 L 850.10 347.00 L 852.60 350.50 L 855.40 353.40 L 868.20 363.50 L 871.30 366.40 L 874.30 369.90 L 876.80 373.80 L 878.60 377.50 L 879.80 381.30 L 880.40 385.10 L 880.40 389.00 L 879.80 392.90 L 878.60 397.10 L 876.60 401.40 L 873.90 406.00 Z" fill="#f06052" fill-rule="nonzero" group-id="1" id="路径" node-id="19" stroke="none" target-height="97.20001" target-width="114.900024" target-x="765.5" target-y="308.8"></path><path d="M 939.80 344.00 L 931.70 343.70 L 930.50 343.10 L 929.60 342.10 L 929.10 340.80 L 929.30 338.40 L 931.20 335.70 L 933.00 334.20 L 940.60 329.80 L 941.20 329.00 L 941.00 328.00 L 938.10 323.20 L 936.70 319.40 L 936.60 317.60 L 937.20 315.40 L 938.90 313.60 L 940.10 313.30 L 941.30 313.40 L 949.30 319.80 L 955.70 314.50 L 957.60 313.60 L 959.20 313.30 L 960.10 313.60 L 960.90 314.30 L 961.50 315.70 L 961.60 318.20 L 960.00 322.10 L 956.10 328.30 L 956.00 328.90 L 963.60 332.90 L 965.40 334.20 L 967.90 337.10 L 968.40 338.70 L 968.00 341.00 L 966.30 342.60 L 962.90 343.50 L 957.30 343.50 L 956.60 343.90 L 961.20 353.80 L 961.50 355.70 L 960.90 357.90 L 960.10 358.80 L 958.30 359.40 L 956.00 358.70 L 954.50 357.70 L 949.70 353.20 L 949.10 352.90 L 948.40 353.10 L 940.70 359.40 L 939.40 359.70 L 938.00 359.10 L 936.20 357.40 L 935.60 355.00 L 940.40 345.00 L 940.40 344.30 L 939.80 344.00 Z" fill="#007763" fill-rule="nonzero" group-id="1" id="路径" node-id="20" stroke="none" target-height="46.400024" target-width="39.30005" target-x="929.1" target-y="313.3"></path><path d="M 238.70 345.40 L 236.30 342.90 L 233.50 340.80 L 230.30 339.30 L 226.70 338.20 L 222.60 337.60 L 222.00 337.80 L 221.60 338.30 L 220.00 342.00 L 218.20 344.90 L 216.10 347.10 L 213.80 348.70 L 211.20 349.90 L 208.20 350.50 L 204.80 350.50 L 200.90 349.90 L 199.60 349.40 L 195.80 346.70 L 194.40 345.90 L 192.70 345.50 L 190.30 345.60 L 188.40 346.20 L 186.80 347.20 L 185.50 348.50 L 184.50 350.10 L 183.60 353.80 L 183.70 355.70 L 184.20 357.60 L 185.20 359.40 L 186.60 361.00 L 189.00 362.80 L 189.10 363.50 L 187.30 373.50 L 184.30 384.20 L 182.90 387.70 L 179.40 393.70 L 177.20 396.30 L 174.70 398.40 L 171.80 400.10 L 166.40 400.90 L 161.40 402.20 L 156.60 404.00 L 152.00 406.20 L 147.70 409.00 L 143.60 412.20 L 139.60 416.00 L 136.40 412.90 L 133.80 409.70 L 131.80 406.30 L 130.20 402.80 L 129.00 399.10 L 128.30 395.30 L 128.10 391.50 L 128.30 387.70 L 128.90 383.90 L 129.90 380.20 L 131.30 376.50 L 133.10 373.00 L 135.30 369.60 L 137.80 366.50 L 140.70 363.60 L 146.20 359.50 L 159.70 352.40 L 163.20 350.10 L 166.50 347.40 L 169.20 344.30 L 171.60 340.70 L 178.80 326.10 L 182.40 321.80 L 184.60 320.10 L 189.30 317.60 L 193.20 316.50 L 197.20 316.00 L 201.30 316.00 L 212.60 317.30 L 215.60 317.30 L 229.20 315.30 L 232.60 315.40 L 235.60 316.20 L 238.50 317.40 L 241.00 319.00 L 243.30 320.90 L 245.20 323.10 L 247.90 328.00 L 248.70 330.70 L 249.00 333.20 L 249.00 335.70 L 248.50 338.10 L 247.50 340.20 L 246.10 342.10 L 244.30 343.60 L 241.80 344.70 L 238.70 345.40 Z" fill="#191a7d" fill-rule="nonzero" group-id="1" id="路径" node-id="21" stroke="none" target-height="100.70001" target-width="120.899994" target-x="128.1" target-y="315.3"></path><path d="M 617.00 318.30 L 687.80 318.30 L 688.70 319.00 L 689.60 322.90 L 689.40 323.80 L 688.60 324.20 L 637.90 324.70 L 531.90 324.10 L 530.80 323.90 L 529.90 323.20 L 529.30 322.30 L 529.20 321.20 L 529.70 319.70 L 530.50 318.90 L 533.20 318.30 L 617.00 318.30 Z" fill="#fdfdfd" fill-rule="nonzero" group-id="1" id="路径" node-id="22" stroke="none" target-height="6.4000244" target-width="160.39996" target-x="529.2" target-y="318.3"></path><path d="M 58.30 354.60 L 56.20 352.60 L 53.10 348.20 L 52.10 345.80 L 51.30 342.40 L 51.10 339.00 L 51.50 335.60 L 52.50 332.40 L 54.00 329.30 L 56.00 326.50 L 59.90 323.00 L 62.30 321.70 L 65.60 320.50 L 64.50 323.70 L 64.50 324.50 L 65.10 325.60 L 66.30 326.40 L 69.50 327.20 L 75.70 327.50 L 77.10 327.20 L 78.10 326.40 L 78.60 325.20 L 77.70 321.90 L 77.80 321.20 L 80.50 321.60 L 84.20 323.40 L 86.50 325.30 L 88.40 327.70 L 89.90 330.50 L 91.00 333.40 L 91.60 337.20 L 91.60 340.70 L 91.00 344.10 L 89.90 347.30 L 88.30 350.10 L 86.20 352.70 L 83.80 354.90 L 81.10 356.70 L 78.10 358.10 L 74.90 359.00 L 71.70 359.30 L 68.30 359.10 L 65.80 358.60 L 60.80 356.40 L 58.30 354.60 Z M 63.00 349.00 L 68.50 349.70 L 74.00 349.90 L 79.60 349.60 L 80.60 349.10 L 81.10 348.30 L 86.90 328.50 L 87.00 327.70 L 86.70 326.90 L 85.40 325.50 L 83.80 324.50 L 81.90 323.90 L 81.20 324.00 L 80.80 324.60 L 77.50 339.90 L 77.10 340.70 L 76.20 341.00 L 66.60 341.30 L 65.70 341.00 L 65.30 340.20 L 63.00 324.20 L 62.70 323.70 L 62.10 323.60 L 60.00 324.20 L 58.80 325.00 L 58.10 325.90 L 57.80 327.10 L 58.10 330.80 L 61.80 347.80 L 62.20 348.60 L 63.00 349.00 Z" fill="#f13860" fill-rule="nonzero" group-id="1" id="形状" node-id="23" stroke="none" target-height="38.799988" target-width="40.5" target-x="51.1" target-y="320.5"></path><path d="M 63.00 349.00 L 62.20 348.60 L 61.80 347.80 L 58.10 330.80 L 57.80 327.10 L 58.10 325.90 L 58.80 325.00 L 60.00 324.20 L 62.10 323.60 L 62.70 323.70 L 63.00 324.20 L 65.30 340.20 L 65.70 341.00 L 66.60 341.30 L 76.20 341.00 L 77.10 340.70 L 77.50 339.90 L 80.80 324.60 L 81.20 324.00 L 81.90 323.90 L 83.80 324.50 L 85.40 325.50 L 86.70 326.90 L 87.00 327.70 L 81.10 348.30 L 80.60 349.10 L 79.60 349.60 L 74.00 349.90 L 68.50 349.70 L 63.00 349.00 Z" fill="#fdfdfd" fill-rule="nonzero" group-id="1" id="路径" node-id="24" stroke="none" target-height="26.299988" target-width="29.2" target-x="57.8" target-y="323.6"></path><path d="M 117.30 351.70 L 115.80 357.10 L 114.00 362.00 L 111.80 366.50 L 109.20 370.50 L 106.40 374.10 L 103.10 377.30 L 98.80 380.90 L 94.40 383.90 L 90.00 386.30 L 85.60 388.20 L 81.00 389.60 L 76.40 390.60 L 71.80 391.10 L 67.30 391.20 L 62.70 390.80 L 58.30 390.00 L 54.00 388.90 L 45.70 385.50 L 38.10 380.70 L 34.60 377.80 L 28.40 371.20 L 23.30 363.60 L 21.30 359.40 L 19.70 355.00 L 18.50 350.40 L 17.60 345.60 L 17.20 340.80 L 17.30 335.70 L 17.80 330.50 L 18.90 325.00 L 20.90 324.90 L 22.00 326.10 L 21.90 332.70 L 22.30 338.40 L 23.20 343.90 L 24.70 349.30 L 26.80 354.40 L 29.50 359.20 L 31.90 362.60 L 37.70 368.80 L 41.10 371.70 L 45.50 374.70 L 50.00 377.10 L 54.70 379.00 L 59.70 380.40 L 64.60 381.30 L 69.70 381.70 L 74.80 381.60 L 79.80 380.90 L 84.70 379.80 L 89.50 378.10 L 94.20 375.90 L 98.60 373.10 L 102.80 369.90 L 106.80 366.20 L 110.50 361.90 L 114.00 357.10 L 117.30 351.70 Z" fill="#cbd2ff" fill-rule="nonzero" group-id="1" id="路径" node-id="25" stroke="none" target-height="66.30002" target-width="100.100006" target-x="17.2" target-y="324.9"></path><path d="M 362.30 325.10 L 448.30 325.30 L 448.40 327.40 L 450.00 328.30 L 450.80 329.50 L 451.30 330.90 L 451.60 332.70 L 451.50 339.40 L 452.20 340.50 L 470.00 340.40 L 471.50 340.60 L 472.40 341.20 L 473.00 342.10 L 473.20 343.50 L 473.20 357.30 L 473.00 357.90 L 472.40 358.10 L 372.80 358.10 L 363.20 357.60 L 362.50 357.30 L 362.20 356.70 L 361.90 351.70 L 362.50 350.70 L 363.40 350.00 L 364.60 349.80 L 414.20 350.20 L 463.80 350.20 L 464.40 350.10 L 465.20 349.20 L 465.30 347.20 L 465.10 346.40 L 464.40 346.10 L 458.60 345.40 L 411.00 345.70 L 363.90 345.40 L 362.90 345.10 L 362.30 344.40 L 361.80 341.80 L 362.80 340.40 L 365.30 339.80 L 439.00 339.70 L 440.10 339.10 L 440.40 337.90 L 439.50 335.90 L 438.70 335.70 L 364.10 335.20 L 362.90 334.70 L 362.00 332.90 L 362.70 329.90 L 362.20 327.70 L 362.30 325.10 Z" fill="#fdfdfd" fill-rule="nonzero" group-id="1" id="路径" node-id="26" stroke="none" target-height="33" target-width="111.400024" target-x="361.8" target-y="325.1"></path><path d="M 657.20 330.80 L 688.20 331.00 L 688.90 331.20 L 689.10 331.90 L 688.90 336.20 L 647.30 336.90 L 530.40 336.70 L 529.80 336.40 L 529.40 335.80 L 529.10 332.10 L 529.80 331.00 L 657.20 330.80 Z" fill="#fdfdfd" fill-rule="nonzero" group-id="1" id="路径" node-id="27" stroke="none" target-height="6.100006" target-width="160" target-x="529.1" target-y="330.8"></path><path d="M 895.70 334.80 L 904.40 335.60 L 905.10 346.90 L 906.10 351.70 L 907.60 356.20 L 909.40 360.40 L 911.80 364.40 L 914.50 368.20 L 918.30 372.30 L 922.20 375.70 L 926.10 378.50 L 930.30 380.70 L 934.60 382.50 L 939.00 383.70 L 943.50 384.40 L 947.90 384.70 L 952.40 384.40 L 956.80 383.70 L 961.10 382.60 L 965.30 381.10 L 969.30 379.20 L 973.10 376.90 L 976.70 374.20 L 980.10 371.10 L 983.20 367.80 L 985.80 364.10 L 988.20 360.10 L 990.20 355.80 L 991.60 351.30 L 992.70 346.60 L 993.20 341.60 L 993.30 335.50 L 1001.60 334.90 L 1002.00 340.20 L 1001.90 345.30 L 1001.30 350.20 L 1000.20 355.00 L 998.60 359.70 L 996.50 364.30 L 993.80 368.80 L 990.60 373.30 L 986.70 377.70 L 982.80 381.50 L 978.70 384.70 L 974.50 387.30 L 970.00 389.60 L 965.50 391.40 L 960.90 392.70 L 956.30 393.60 L 951.60 394.00 L 946.90 394.00 L 942.30 393.60 L 937.80 392.80 L 933.30 391.60 L 924.70 388.00 L 920.70 385.70 L 916.80 383.10 L 913.20 380.10 L 909.90 376.80 L 906.80 373.20 L 904.10 369.30 L 901.70 365.20 L 899.60 360.70 L 897.90 356.00 L 896.70 351.10 L 895.90 346.00 L 895.60 340.60 L 895.70 334.80 Z" fill="#00cb8b" fill-rule="nonzero" group-id="1" id="路径" node-id="28" stroke="none" target-height="59.200012" target-width="106.400024" target-x="895.6" target-y="334.8"></path><path d="M 844.40 402.60 L 842.20 406.70 L 839.30 410.60 L 834.80 415.00 L 832.30 416.60 L 829.60 417.80 L 826.90 418.50 L 824.10 418.50 L 822.00 418.10 L 820.00 417.30 L 817.80 416.00 L 815.50 414.00 L 813.70 411.50 L 811.30 405.40 L 811.30 385.50 L 810.40 385.30 L 798.60 387.90 L 793.60 387.80 L 791.30 387.20 L 789.30 386.00 L 787.50 384.30 L 786.00 382.20 L 784.80 379.20 L 783.80 375.00 L 781.30 359.40 L 779.40 343.60 L 798.90 336.30 L 799.90 337.00 L 800.10 337.60 L 800.50 346.90 L 803.10 349.50 L 805.40 350.70 L 807.80 351.40 L 810.40 351.50 L 813.40 351.10 L 814.50 350.40 L 817.50 346.50 L 819.90 344.70 L 821.50 344.30 L 824.20 344.20 L 826.30 344.70 L 827.90 345.70 L 829.30 347.10 L 830.20 348.70 L 830.70 350.60 L 830.90 352.60 L 830.50 354.60 L 829.80 356.60 L 828.60 358.50 L 827.00 360.10 L 824.40 361.70 L 823.90 362.60 L 826.20 374.10 L 827.70 379.90 L 829.70 385.70 L 831.40 389.40 L 835.50 395.90 L 838.10 398.60 L 841.00 400.90 L 844.40 402.60 Z" fill="#ffa3a2" fill-rule="nonzero" group-id="1" id="路径" node-id="29" stroke="none" target-height="82.20001" target-width="65" target-x="779.4" target-y="336.3"></path><path d="M 238.70 345.40 L 235.00 377.50 L 234.20 380.60 L 233.10 382.80 L 231.50 384.70 L 229.80 386.10 L 227.70 387.00 L 223.10 387.60 L 215.90 386.70 L 211.00 385.60 L 210.00 385.90 L 209.50 386.80 L 210.00 403.40 L 209.20 407.00 L 208.00 410.00 L 206.40 412.40 L 204.40 414.30 L 202.00 415.90 L 199.20 417.00 L 196.20 417.50 L 193.40 417.50 L 190.70 417.00 L 185.70 414.70 L 180.10 410.20 L 177.10 406.90 L 171.80 400.10 L 174.70 398.40 L 177.20 396.30 L 179.40 393.70 L 182.90 387.70 L 186.00 378.90 L 187.30 373.50 L 189.10 363.50 L 189.00 362.80 L 186.60 361.00 L 185.20 359.40 L 184.20 357.60 L 183.70 355.70 L 183.80 351.90 L 184.50 350.10 L 185.50 348.50 L 186.80 347.20 L 188.40 346.20 L 190.30 345.60 L 192.70 345.50 L 194.40 345.90 L 195.80 346.70 L 199.60 349.40 L 200.90 349.90 L 204.80 350.50 L 208.20 350.50 L 211.20 349.90 L 213.80 348.70 L 216.10 347.10 L 218.20 344.90 L 220.00 342.00 L 221.60 338.30 L 222.00 337.80 L 222.60 337.60 L 226.70 338.20 L 230.30 339.30 L 233.50 340.80 L 236.30 342.90 L 238.70 345.40 Z" fill="#ffa3a2" fill-rule="nonzero" group-id="1" id="路径" node-id="30" stroke="none" target-height="79.899994" target-width="66.899994" target-x="171.8" target-y="337.6"></path><path d="M 658.70 343.50 L 687.90 343.70 L 688.40 343.90 L 688.60 344.40 L 688.90 348.20 L 688.80 349.20 L 688.30 349.70 L 687.30 349.90 L 587.50 350.00 L 531.60 349.70 L 530.30 349.20 L 529.60 348.50 L 529.20 347.50 L 529.20 346.10 L 529.90 344.20 L 530.30 343.70 L 530.90 343.50 L 658.70 343.50 Z" fill="#fdfdfd" fill-rule="nonzero" group-id="1" id="路径" node-id="31" stroke="none" target-height="6.5" target-width="159.70001" target-x="529.2" target-y="343.5"></path><path d="M 586.30 362.40 L 688.20 362.50 L 688.70 362.60 L 688.90 363.10 L 689.30 367.50 L 689.10 368.20 L 688.40 368.50 L 682.00 368.90 L 531.70 368.90 L 530.70 368.70 L 530.00 367.90 L 529.20 365.90 L 529.10 364.60 L 529.60 363.60 L 530.60 362.90 L 531.90 362.60 L 586.30 362.40 Z" fill="#fdfdfd" fill-rule="nonzero" group-id="1" id="路径" node-id="32" stroke="none" target-height="6.5" target-width="160.20001" target-x="529.1" target-y="362.4"></path><path d="M 409.40 371.60 L 409.30 378.80 L 408.80 380.10 L 407.60 380.60 L 363.30 380.60 L 362.30 380.00 L 361.70 378.20 L 361.70 377.00 L 362.10 376.20 L 364.10 375.20 L 397.20 374.80 L 398.00 374.40 L 398.30 373.50 L 398.00 371.50 L 397.70 370.80 L 396.90 370.50 L 373.90 370.50 L 366.10 370.00 L 363.20 369.50 L 362.10 368.90 L 361.70 368.30 L 361.50 366.80 L 362.10 365.40 L 363.40 364.60 L 364.10 364.50 L 471.50 364.40 L 472.80 365.00 L 473.30 366.30 L 473.40 382.60 L 472.20 383.40 L 442.90 383.30 L 441.90 382.80 L 441.80 377.80 L 442.00 377.10 L 442.70 376.80 L 453.20 376.30 L 464.00 376.20 L 464.60 375.30 L 464.40 371.80 L 464.00 371.00 L 463.20 370.70 L 410.30 370.70 L 409.70 371.00 L 409.40 371.60 Z" fill="#fdfdfd" fill-rule="nonzero" group-id="1" id="路径" node-id="33" stroke="none" target-height="19" target-width="111.899994" target-x="361.5" target-y="364.4"></path><g node-id="122"><path d="M 530.30 375.10 L 623.80 374.90 L 624.50 375.20 L 624.80 375.90 L 624.80 379.80 L 624.60 380.50 L 623.80 380.80 L 530.30 380.90 L 529.60 380.60 L 529.30 379.90 L 529.30 376.10 L 529.60 375.40 L 530.30 375.10 Z" fill="#fdfdfd" fill-rule="nonzero" group-id="1,3" id="矩形" node-id="34" stroke="none" target-height="6" target-width="95.5" target-x="529.3" target-y="374.9"></path></g><path d="M 685.50 375.10 L 688.20 375.10 L 689.20 375.60 L 689.40 379.60 L 689.00 380.50 L 669.40 380.70 L 630.60 380.60 L 630.00 380.40 L 629.80 379.80 L 630.30 375.30 L 631.00 375.10 L 685.50 375.10 Z" fill="#fdfdfd" fill-rule="nonzero" group-id="1" id="路径" node-id="35" stroke="none" target-height="5.600006" target-width="59.600037" target-x="629.8" target-y="375.1"></path><path d="M 336.20 383.20 L 339.00 383.70 L 341.10 384.60 L 342.70 385.80 L 343.90 387.40 L 344.60 389.30 L 345.10 392.30 L 345.50 392.50 L 349.10 391.20 L 350.20 391.40 L 350.30 395.80 L 354.20 398.40 L 354.80 399.60 L 354.80 400.30 L 354.50 401.00 L 353.50 401.90 L 345.10 403.10 L 340.80 407.50 L 335.60 410.50 L 334.90 411.40 L 332.30 416.90 L 326.80 432.20 L 318.70 458.10 L 298.20 441.90 L 304.40 433.70 L 310.00 425.60 L 314.90 417.40 L 319.30 409.30 L 323.00 401.30 L 327.60 390.10 L 329.10 387.70 L 330.70 385.90 L 332.40 384.60 L 334.20 383.70 L 336.20 383.20 Z" fill="#ffa3a2" fill-rule="nonzero" group-id="1" id="路径" node-id="36" stroke="none" target-height="74.899994" target-width="56.599976" target-x="298.2" target-y="383.2"></path><g node-id="123"><path d="M 362.90 385.00 L 437.90 385.10 L 438.70 385.40 L 439.00 386.20 L 439.00 392.40 L 438.30 393.40 L 362.90 393.40 L 362.20 393.10 L 361.80 392.30 L 361.80 386.10 L 362.20 385.30 L 362.90 385.00 Z" fill="#fdfdfd" fill-rule="nonzero" group-id="1,4" id="矩形" node-id="37" stroke="none" target-height="8.399994" target-width="77.20001" target-x="361.8" target-y="385"></path></g><path d="M 687.30 387.20 L 688.20 387.50 L 688.70 388.30 L 688.90 389.90 L 688.40 392.80 L 688.10 393.40 L 687.50 393.60 L 530.30 393.30 L 529.60 393.10 L 529.40 392.40 L 529.50 387.90 L 530.50 387.20 L 687.30 387.20 Z" fill="#fdfdfd" fill-rule="nonzero" group-id="1" id="路径" node-id="38" stroke="none" target-height="6.399994" target-width="159.5" target-x="529.4" target-y="387.2"></path><path d="M 613.00 400.00 L 613.00 405.30 L 612.20 406.40 L 530.60 406.30 L 530.10 406.10 L 529.80 405.60 L 529.30 400.80 L 529.70 399.80 L 530.40 399.60 L 613.00 400.00 Z" fill="#fdfdfd" fill-rule="nonzero" group-id="1" id="路径" node-id="39" stroke="none" target-height="6.799988" target-width="83.70001" target-x="529.3" target-y="399.6"></path><path d="M 171.80 400.10 L 177.10 406.90 L 180.10 410.20 L 183.40 413.10 L 188.20 416.00 L 190.70 417.00 L 193.40 417.50 L 196.20 417.50 L 199.20 417.00 L 202.00 415.90 L 204.40 414.30 L 206.40 412.40 L 208.00 410.00 L 209.20 407.00 L 210.00 403.40 L 214.70 404.30 L 219.10 405.50 L 223.20 407.20 L 227.00 409.20 L 231.90 412.50 L 236.40 416.20 L 240.60 420.40 L 244.50 424.90 L 251.60 434.60 L 260.70 449.40 L 256.90 454.80 L 252.80 456.10 L 251.50 459.20 L 250.20 461.30 L 248.60 463.10 L 246.40 464.70 L 201.90 464.20 L 200.70 464.50 L 199.80 465.10 L 199.20 466.10 L 199.20 467.30 L 200.30 475.50 L 178.70 496.30 L 189.60 513.10 L 190.20 513.60 L 191.90 512.50 L 188.90 516.60 L 182.90 522.30 L 171.00 532.30 L 159.90 539.90 L 150.70 544.70 L 145.90 546.60 L 141.10 547.90 L 136.30 548.70 L 132.80 548.50 L 125.70 547.30 L 121.80 545.20 L 118.40 543.00 L 115.60 540.50 L 113.30 537.80 L 109.60 531.60 L 107.40 524.60 L 106.70 519.70 L 106.40 514.60 L 106.50 509.30 L 107.40 501.40 L 108.90 493.60 L 115.80 466.90 L 119.10 456.00 L 121.70 448.90 L 127.60 435.30 L 131.10 428.80 L 135.10 422.40 L 139.60 416.00 L 143.60 412.20 L 147.70 409.00 L 152.00 406.20 L 156.60 404.00 L 161.40 402.20 L 166.40 400.90 L 171.80 400.10 Z M 166.10 468.80 L 163.80 481.20 L 157.60 506.20 L 159.00 505.50 L 160.90 502.70 L 163.30 495.90 L 165.40 487.00 L 167.10 477.70 L 169.10 463.30 L 168.90 458.20 L 168.30 455.00 L 166.40 448.40 L 165.10 445.40 L 163.60 442.90 L 162.00 441.20 L 161.30 441.40 L 165.00 450.60 L 166.10 454.80 L 166.70 459.10 L 166.70 463.50 L 166.10 468.80 Z" fill="#6361ff" fill-rule="nonzero" group-id="1" id="形状" node-id="40" stroke="none" target-height="148.6" target-width="154.30002" target-x="106.4" target-y="400.1"></path><path d="M 362.90 402.20 L 437.80 402.20 L 438.60 402.50 L 438.90 403.30 L 438.90 409.00 L 438.60 409.80 L 437.80 410.10 L 362.90 410.10 L 362.10 409.80 L 361.80 409.00 L 361.80 403.30 L 362.10 402.50 L 362.90 402.20 Z" fill="#fdfdfd" fill-rule="nonzero" group-id="1" id="矩形" node-id="41" stroke="none" target-height="7.899994" target-width="77.100006" target-x="361.8" target-y="402.2"></path><path d="M 873.90 406.00 L 878.50 409.30 L 882.60 412.80 L 886.30 416.40 L 889.60 420.30 L 893.60 425.80 L 897.00 431.70 L 899.90 437.90 L 902.40 444.20 L 904.50 450.80 L 906.20 457.60 L 908.30 468.00 L 909.90 478.50 L 912.50 499.50 L 913.30 510.70 L 913.60 522.10 L 913.40 533.70 L 912.60 545.10 L 910.40 560.10 L 908.70 567.20 L 906.70 574.30 L 904.30 580.90 L 901.40 587.20 L 899.00 590.50 L 894.10 595.20 L 889.00 598.10 L 883.60 599.40 L 880.90 599.50 L 877.30 599.20 L 873.60 598.30 L 869.90 597.00 L 862.90 593.20 L 859.50 590.80 L 854.70 586.80 L 850.30 582.50 L 842.40 572.90 L 830.80 571.50 L 831.70 569.20 L 832.60 568.20 L 843.00 563.10 L 848.00 560.20 L 856.10 554.30 L 861.50 549.00 L 863.70 546.10 L 865.30 543.10 L 866.40 540.10 L 867.60 534.20 L 868.30 528.00 L 868.50 521.30 L 868.30 514.20 L 864.30 465.30 L 864.90 458.30 L 866.30 449.70 L 864.20 453.70 L 863.10 457.00 L 862.50 460.50 L 862.30 464.10 L 862.90 480.00 L 863.90 495.00 L 863.90 496.10 L 862.90 498.00 L 849.80 507.10 L 847.30 508.50 L 839.90 511.70 L 825.00 521.70 L 814.50 526.20 L 800.60 538.50 L 795.20 542.40 L 790.70 544.50 L 789.50 544.60 L 788.60 544.30 L 787.70 543.30 L 786.70 544.50 L 788.10 533.70 L 788.20 528.80 L 787.10 506.50 L 785.20 478.40 L 785.80 467.50 L 785.70 467.00 L 784.90 466.80 L 783.50 470.40 L 782.80 473.90 L 782.40 477.70 L 782.30 483.50 L 782.70 489.40 L 784.00 500.30 L 783.80 502.60 L 782.50 504.50 L 779.50 506.90 L 771.60 512.30 L 766.20 518.00 L 759.30 523.20 L 754.30 527.50 L 749.60 532.20 L 745.30 537.30 L 741.00 543.50 L 743.20 551.40 L 708.70 555.70 L 685.90 556.10 L 687.00 532.50 L 707.60 530.50 L 709.20 530.10 L 710.40 529.30 L 711.20 528.10 L 711.60 526.50 L 712.60 517.20 L 727.20 510.40 L 734.20 506.50 L 740.80 502.30 L 749.10 495.70 L 752.80 492.00 L 756.30 488.10 L 759.40 483.70 L 762.30 479.00 L 765.00 473.50 L 777.40 444.60 L 784.90 428.40 L 789.30 420.50 L 791.60 417.00 L 794.50 413.90 L 797.80 411.20 L 801.70 408.90 L 806.10 406.90 L 811.30 405.40 L 814.60 412.90 L 817.80 416.00 L 820.00 417.30 L 822.00 418.10 L 824.10 418.50 L 826.90 418.50 L 829.60 417.80 L 832.30 416.60 L 837.10 413.00 L 839.30 410.60 L 842.20 406.70 L 844.40 402.60 L 849.70 402.10 L 854.90 402.00 L 859.80 402.40 L 864.60 403.10 L 869.30 404.40 L 873.90 406.00 Z" fill="#fd4670" fill-rule="nonzero" group-id="1" id="路径" node-id="42" stroke="none" target-height="197.5" target-width="227.69995" target-x="685.9" target-y="402"></path><path d="M 336.10 410.20 L 335.90 460.70 L 336.20 481.10 L 336.50 484.30 L 337.30 486.60 L 338.40 488.40 L 339.90 489.70 L 341.80 490.50 L 344.20 491.00 L 331.20 548.40 L 330.80 549.00 L 330.20 549.20 L 292.40 547.80 L 288.60 548.20 L 287.20 548.70 L 286.60 549.30 L 286.40 550.10 L 286.70 550.90 L 287.50 551.30 L 311.10 555.80 L 274.70 556.60 L 272.40 557.10 L 270.60 558.20 L 269.20 559.70 L 268.30 561.60 L 267.80 563.60 L 267.90 565.70 L 268.40 567.70 L 269.40 569.50 L 270.90 570.90 L 272.80 571.80 L 276.30 572.50 L 285.20 573.30 L 296.20 573.40 L 323.80 572.80 L 324.40 573.00 L 324.70 573.60 L 324.80 613.80 L 317.90 610.50 L 304.10 604.90 L 282.80 598.10 L 256.60 590.70 L 252.90 589.30 L 249.60 587.50 L 246.70 585.30 L 243.90 582.50 L 240.80 578.70 L 237.40 568.30 L 235.50 558.00 L 235.00 551.00 L 234.90 544.00 L 235.30 536.90 L 236.40 526.30 L 238.20 515.50 L 238.50 514.70 L 239.00 514.50 L 248.50 521.00 L 253.70 523.80 L 263.10 527.50 L 270.80 529.20 L 274.70 529.40 L 278.30 529.20 L 281.90 528.50 L 284.40 527.60 L 289.10 524.80 L 291.20 522.90 L 295.10 518.40 L 298.60 513.70 L 301.80 508.70 L 307.20 498.20 L 309.40 492.60 L 312.40 484.20 L 314.90 475.50 L 318.70 458.10 L 326.80 432.20 L 332.30 416.90 L 334.90 411.40 L 336.10 410.20 Z" fill="#fdfdfd" fill-rule="nonzero" group-id="1" id="路径" node-id="43" stroke="none" target-height="203.59998" target-width="109.30002" target-x="234.9" target-y="410.2"></path><path d="M 463.20 423.20 L 429.40 422.60 L 428.70 422.30 L 428.40 421.50 L 428.60 418.70 L 428.80 418.00 L 429.60 417.70 L 470.70 417.60 L 472.50 418.60 L 473.60 420.50 L 473.70 421.60 L 473.30 435.50 L 473.00 436.20 L 472.30 436.40 L 363.10 436.70 L 362.20 435.50 L 361.80 430.20 L 362.30 428.80 L 363.70 428.20 L 462.40 428.50 L 463.90 427.90 L 464.50 426.40 L 464.40 424.00 L 463.20 423.20 Z" fill="#fdfdfd" fill-rule="nonzero" group-id="1" id="路径" node-id="44" stroke="none" target-height="19.100006" target-width="111.900024" target-x="361.8" target-y="417.6"></path><path d="M 698.70 445.20 L 699.20 463.40 L 687.80 463.50 L 686.70 457.90 L 685.00 452.80 L 682.90 448.10 L 677.00 437.90 L 675.60 434.80 L 674.60 431.80 L 674.50 427.80 L 674.90 425.80 L 675.80 424.00 L 677.30 422.10 L 679.50 420.20 L 680.20 419.90 L 681.00 420.00 L 685.00 422.40 L 688.40 425.00 L 691.20 427.80 L 693.60 430.80 L 695.50 434.00 L 697.00 437.40 L 698.10 441.10 L 698.70 445.20 Z" fill="#00cb8b" fill-rule="nonzero" group-id="1" id="路径" node-id="45" stroke="none" target-height="43.600006" target-width="24.700012" target-x="674.5" target-y="419.9"></path><path d="M 97.90 478.30 L 80.80 479.50 L 77.90 480.20 L 73.90 481.70 L 70.40 483.50 L 67.30 485.80 L 64.70 488.50 L 62.50 491.50 L 60.60 495.10 L 59.20 499.20 L 58.60 502.20 L 58.40 505.40 L 59.00 511.70 L 72.20 581.50 L 73.50 585.00 L 76.40 587.70 L 76.70 588.50 L 78.90 598.40 L 79.30 599.00 L 79.90 599.20 L 80.60 599.00 L 81.00 598.30 L 81.20 595.50 L 80.50 589.30 L 81.20 588.30 L 101.60 588.80 L 96.60 599.00 L 91.20 608.90 L 85.20 618.40 L 82.20 605.70 L 81.40 605.00 L 80.60 605.60 L 80.40 609.60 L 82.70 623.80 L 70.80 640.60 L 57.50 641.90 L 56.40 641.50 L 56.00 640.50 L 54.30 569.40 L 54.10 568.80 L 53.50 568.50 L 52.90 568.60 L 52.50 569.10 L 52.00 570.20 L 53.60 632.00 L 53.30 639.50 L 52.80 642.60 L 52.00 644.30 L 48.40 640.30 L 45.20 636.00 L 39.20 626.60 L 33.50 616.90 L 28.20 606.90 L 23.20 596.60 L 18.60 586.20 L 14.50 575.50 L 10.80 564.80 L 7.60 553.90 L 4.90 542.80 L 2.70 531.70 L 1.10 520.60 L 0.10 508.90 L 0.90 508.50 L 1.30 508.70 L 16.80 521.10 L 17.50 521.10 L 17.70 520.70 L 14.00 513.30 L 11.10 506.20 L 8.70 499.10 L 7.40 493.60 L 6.50 488.10 L 6.10 482.60 L 6.10 477.10 L 6.60 471.60 L 7.70 466.00 L 9.30 460.40 L 11.50 454.60 L 13.70 450.10 L 16.30 445.80 L 19.10 441.90 L 22.40 438.30 L 25.90 435.10 L 29.80 432.30 L 34.00 430.00 L 38.50 428.00 L 43.30 426.60 L 49.50 425.80 L 56.80 426.00 L 64.10 427.40 L 67.70 428.60 L 74.00 431.80 L 76.70 434.00 L 78.90 436.50 L 80.60 439.30 L 81.50 441.60 L 82.00 444.10 L 82.00 446.90 L 81.70 450.00 L 76.60 472.50 L 76.80 472.80 L 77.40 472.50 L 89.40 454.60 L 90.20 454.20 L 93.00 460.40 L 95.00 466.30 L 96.70 472.20 L 97.90 478.30 Z" fill="#00cb8b" fill-rule="nonzero" group-id="1" id="路径" node-id="46" stroke="none" target-height="218.5" target-width="101.5" target-x="0.1" target-y="425.8"></path><path d="M 166.10 468.80 L 166.70 463.50 L 166.70 459.10 L 166.10 454.80 L 165.00 450.60 L 161.30 441.40 L 162.00 441.20 L 163.60 442.90 L 165.10 445.40 L 166.40 448.40 L 168.30 455.00 L 168.90 458.20 L 169.10 463.30 L 167.10 477.70 L 165.40 487.00 L 163.30 495.90 L 160.90 502.70 L 159.00 505.50 L 157.60 506.20 L 163.80 481.20 L 166.10 468.80 Z" fill="#4640eb" fill-rule="nonzero" group-id="1" id="路径" node-id="47" stroke="none" target-height="65" target-width="11.5" target-x="157.6" target-y="441.2"></path><path d="M 298.20 441.90 L 318.70 458.10 L 314.90 475.50 L 312.40 484.20 L 307.20 498.20 L 301.80 508.70 L 298.60 513.70 L 295.10 518.40 L 291.20 522.90 L 289.10 524.80 L 286.80 526.40 L 281.90 528.50 L 278.30 529.20 L 274.70 529.40 L 270.80 529.20 L 263.10 527.50 L 253.70 523.80 L 248.50 521.00 L 243.70 517.90 L 239.80 514.90 L 239.00 514.50 L 238.50 514.70 L 236.40 526.30 L 235.30 536.90 L 234.90 544.00 L 235.00 551.00 L 235.50 558.00 L 236.30 563.20 L 238.90 573.50 L 240.80 578.70 L 239.50 580.20 L 238.10 580.60 L 217.30 579.50 L 196.80 579.00 L 169.60 579.50 L 156.20 580.30 L 142.80 581.60 L 129.50 583.50 L 116.30 585.80 L 120.10 572.70 L 123.20 559.80 L 125.70 547.30 L 134.60 548.70 L 141.10 547.90 L 145.90 546.60 L 150.70 544.70 L 159.90 539.90 L 171.00 532.30 L 182.90 522.30 L 188.00 517.60 L 191.90 512.50 L 203.90 501.20 L 206.90 508.80 L 208.70 510.50 L 210.00 511.00 L 216.70 511.90 L 223.40 512.40 L 230.00 512.40 L 237.50 511.70 L 239.00 509.90 L 240.40 505.90 L 248.50 466.00 L 248.40 465.30 L 246.40 464.70 L 248.60 463.10 L 250.20 461.30 L 251.50 459.20 L 252.80 456.10 L 256.90 454.80 L 260.70 449.40 L 274.30 469.10 L 274.70 469.40 L 275.70 469.50 L 298.20 441.90 Z" fill="#5048ff" fill-rule="nonzero" group-id="1" id="路径" node-id="48" stroke="none" target-height="143.9" target-width="202.40001" target-x="116.3" target-y="441.9"></path><path d="M 680.30 443.80 L 682.90 448.10 L 685.00 452.80 L 686.70 457.90 L 687.80 463.50 L 670.20 464.10 L 669.00 464.70 L 668.20 465.70 L 667.70 466.90 L 667.70 468.80 L 674.90 530.30 L 673.80 531.10 L 624.40 531.10 L 623.80 531.30 L 623.50 531.90 L 623.30 539.20 L 623.60 542.90 L 625.00 548.80 L 627.40 552.60 L 629.00 554.10 L 631.00 555.40 L 633.50 556.30 L 592.00 556.20 L 596.30 552.90 L 598.40 550.30 L 599.40 548.50 L 608.80 527.80 L 617.70 506.90 L 626.10 485.80 L 626.70 483.50 L 626.90 481.40 L 626.70 479.50 L 626.00 477.70 L 624.80 475.90 L 623.40 474.70 L 621.60 473.80 L 619.20 473.10 L 616.20 472.90 L 565.50 472.90 L 535.80 473.10 L 533.70 473.40 L 532.10 474.10 L 527.20 478.00 L 525.40 480.40 L 523.60 483.40 L 511.80 508.30 L 502.80 528.20 L 496.30 544.00 L 495.60 547.90 L 494.70 549.50 L 492.90 550.00 L 459.50 550.60 L 458.70 550.80 L 458.10 551.40 L 457.90 552.30 L 458.70 554.20 L 458.70 556.60 L 448.80 556.70 L 452.00 555.10 L 454.20 553.40 L 456.10 551.40 L 457.50 549.00 L 458.50 546.40 L 472.50 491.10 L 501.60 491.20 L 505.50 490.30 L 506.80 489.50 L 508.80 487.00 L 509.90 482.70 L 510.10 479.70 L 510.50 445.30 L 510.80 444.60 L 512.30 444.00 L 680.30 443.80 Z" fill="#fdfdfd" fill-rule="nonzero" group-id="1" id="路径" node-id="49" stroke="none" target-height="112.900024" target-width="239" target-x="448.8" target-y="443.8"></path><path d="M 830.80 571.50 L 824.40 571.10 L 811.30 571.10 L 788.30 572.60 L 785.90 572.40 L 782.50 571.70 L 777.70 569.90 L 780.60 563.80 L 783.10 557.60 L 785.10 551.10 L 786.70 544.50 L 787.30 543.60 L 787.70 543.30 L 788.60 544.30 L 789.50 544.60 L 790.70 544.50 L 792.60 543.90 L 795.20 542.40 L 800.60 538.50 L 814.50 526.20 L 825.00 521.70 L 839.90 511.70 L 847.30 508.50 L 849.80 507.10 L 862.90 498.00 L 863.90 496.10 L 863.90 495.00 L 862.90 480.00 L 862.30 464.10 L 862.50 460.50 L 863.10 457.00 L 864.20 453.70 L 866.30 449.70 L 864.90 458.30 L 864.30 465.30 L 868.30 514.20 L 868.50 521.30 L 868.30 528.00 L 867.60 534.20 L 866.40 540.10 L 865.30 543.10 L 863.70 546.10 L 861.50 549.00 L 856.10 554.30 L 848.00 560.20 L 843.00 563.10 L 832.60 568.20 L 831.70 569.20 L 830.80 571.50 Z" fill="#f13860" fill-rule="nonzero" group-id="1" id="路径" node-id="50" stroke="none" target-height="122.89996" target-width="90.79999" target-x="777.7" target-y="449.7"></path><path d="M 687.80 463.50 L 713.20 463.70 L 715.30 463.90 L 716.80 464.50 L 717.90 465.40 L 718.60 466.50 L 718.90 468.10 L 718.90 470.20 L 711.60 526.50 L 711.20 528.10 L 710.40 529.30 L 709.20 530.10 L 707.60 530.50 L 678.20 533.40 L 675.70 533.70 L 672.10 535.10 L 670.80 536.10 L 669.80 537.60 L 669.10 539.70 L 669.00 545.20 L 669.60 549.50 L 666.20 556.20 L 633.50 556.30 L 631.00 555.40 L 629.00 554.10 L 627.40 552.60 L 625.00 548.80 L 624.30 546.50 L 623.60 542.90 L 623.30 539.20 L 623.50 531.90 L 623.80 531.30 L 624.40 531.10 L 673.80 531.10 L 674.70 530.70 L 675.00 529.80 L 667.70 468.80 L 667.70 466.90 L 668.20 465.70 L 669.00 464.70 L 670.20 464.10 L 687.80 463.50 Z" fill="#ff9a29" fill-rule="nonzero" group-id="1" id="路径" node-id="51" stroke="none" target-height="92.79999" target-width="95.60004" target-x="623.3" target-y="463.5"></path><path d="M 246.40 464.70 L 248.40 465.30 L 248.50 466.00 L 240.40 505.90 L 239.00 509.90 L 238.20 511.20 L 236.80 512.00 L 230.00 512.40 L 223.40 512.40 L 216.70 511.90 L 210.00 511.00 L 208.70 510.50 L 206.90 508.80 L 203.90 501.20 L 208.20 500.10 L 212.20 498.60 L 215.70 496.60 L 218.90 494.10 L 221.80 491.20 L 225.00 487.20 L 228.80 486.20 L 231.50 485.00 L 234.00 483.20 L 234.20 482.30 L 233.50 481.80 L 224.10 481.10 L 223.40 480.80 L 223.10 480.10 L 223.40 473.80 L 223.10 472.30 L 221.80 470.50 L 219.50 469.70 L 216.00 469.50 L 212.60 469.80 L 209.40 470.50 L 206.30 471.70 L 203.30 473.30 L 200.30 475.50 L 199.20 467.30 L 199.20 466.10 L 199.80 465.10 L 200.70 464.50 L 201.90 464.20 L 246.40 464.70 Z" fill="#191a7d" fill-rule="nonzero" group-id="1" id="路径" node-id="52" stroke="none" target-height="48.200012" target-width="49.300003" target-x="199.2" target-y="464.2"></path><path d="M 472.50 491.10 L 458.50 546.40 L 457.50 549.00 L 456.10 551.40 L 454.20 553.40 L 452.00 555.10 L 448.80 556.70 L 397.20 556.60 L 345.60 557.10 L 322.40 556.60 L 311.10 555.80 L 287.50 551.30 L 286.70 550.90 L 286.40 550.10 L 286.60 549.30 L 287.20 548.70 L 288.60 548.20 L 292.40 547.80 L 330.20 549.20 L 330.80 549.00 L 331.20 548.40 L 344.20 491.00 L 346.70 477.70 L 347.90 473.70 L 349.10 471.20 L 350.40 469.10 L 352.10 467.40 L 354.00 466.10 L 356.40 465.20 L 359.40 464.90 L 469.30 464.90 L 471.40 465.20 L 473.00 465.90 L 474.10 467.10 L 475.50 470.30 L 475.80 472.50 L 475.40 479.40 L 473.90 486.20 L 472.50 491.10 Z M 413.50 514.20 L 416.80 515.00 L 420.20 514.30 L 423.30 512.30 L 425.40 509.30 L 426.10 507.50 L 426.30 503.90 L 425.30 500.50 L 423.10 497.90 L 420.00 496.40 L 416.50 496.40 L 414.80 496.90 L 411.80 498.90 L 409.70 501.90 L 408.70 505.50 L 409.10 509.10 L 410.80 512.10 L 413.50 514.20 Z" fill="#008f80" fill-rule="nonzero" group-id="1" id="形状" node-id="53" stroke="none" target-height="92.19998" target-width="189.4" target-x="286.4" target-y="464.9"></path><path d="M 787.60 537.80 L 776.50 542.00 L 765.40 545.70 L 754.30 548.90 L 743.20 551.40 L 741.00 543.50 L 745.30 537.30 L 749.60 532.20 L 754.30 527.50 L 759.30 523.20 L 766.20 518.00 L 771.60 512.30 L 779.50 506.90 L 783.30 503.60 L 784.00 501.50 L 784.00 500.30 L 782.70 489.40 L 782.30 483.50 L 782.40 477.70 L 782.80 473.90 L 783.50 470.40 L 784.90 466.80 L 785.30 466.80 L 785.80 467.50 L 785.20 478.40 L 787.10 506.50 L 788.20 528.80 L 788.10 533.70 L 787.60 537.80 Z" fill="#f13860" fill-rule="nonzero" group-id="1" id="路径" node-id="54" stroke="none" target-height="84.60004" target-width="47.200012" target-x="741" target-y="466.8"></path><path d="M 203.90 501.20 L 191.90 512.50 L 190.20 513.60 L 189.60 513.10 L 178.70 496.30 L 200.30 475.50 L 203.30 473.30 L 206.30 471.70 L 209.40 470.50 L 212.60 469.80 L 216.00 469.50 L 220.80 470.00 L 222.40 471.10 L 223.10 472.30 L 223.40 473.80 L 223.10 480.10 L 223.40 480.80 L 224.10 481.10 L 233.50 481.80 L 234.20 482.30 L 234.20 482.80 L 231.50 485.00 L 228.80 486.20 L 225.00 487.20 L 221.80 491.20 L 218.90 494.10 L 215.70 496.60 L 212.20 498.60 L 208.20 500.10 L 203.90 501.20 Z" fill="#ffa3a2" fill-rule="nonzero" group-id="1" id="路径" node-id="55" stroke="none" target-height="44.099976" target-width="55.5" target-x="178.7" target-y="469.5"></path><path d="M 624.80 475.90 L 550.90 523.90 L 508.80 549.30 L 504.40 552.60 L 500.20 556.20 L 458.70 556.60 L 458.70 554.20 L 457.90 552.30 L 458.10 551.40 L 458.70 550.80 L 459.50 550.60 L 492.90 550.00 L 494.00 552.70 L 494.60 552.80 L 495.80 552.10 L 531.00 475.20 L 532.10 474.10 L 533.70 473.40 L 535.80 473.10 L 616.20 472.90 L 619.20 473.10 L 621.60 473.80 L 623.40 474.70 L 624.80 475.90 Z" fill="#e1e6ff" fill-rule="nonzero" group-id="1" id="路径" node-id="56" stroke="none" target-height="83.69998" target-width="166.9" target-x="457.9" target-y="472.9"></path><path d="M 531.00 475.20 L 496.30 551.40 L 495.00 552.60 L 494.00 552.70 L 492.90 550.00 L 494.00 549.90 L 495.20 549.00 L 496.30 544.00 L 502.80 528.20 L 511.80 508.30 L 523.60 483.40 L 525.40 480.40 L 527.20 478.10 L 529.10 476.40 L 531.00 475.20 Z" fill="#ecf6fe" fill-rule="nonzero" group-id="1" id="路径" node-id="57" stroke="none" target-height="77.5" target-width="38.100006" target-x="492.9" target-y="475.2"></path><path d="M 624.80 475.90 L 626.00 477.70 L 626.70 479.50 L 626.90 481.40 L 626.70 483.50 L 626.10 485.80 L 617.70 506.90 L 608.80 527.80 L 599.40 548.50 L 598.40 550.30 L 596.30 552.90 L 592.00 556.20 L 500.20 556.20 L 504.40 552.60 L 508.80 549.30 L 550.90 523.90 L 624.80 475.90 Z" fill="#cbd2ff" fill-rule="nonzero" group-id="1" id="路径" node-id="58" stroke="none" target-height="80.30002" target-width="126.70001" target-x="500.2" target-y="475.9"></path><path d="M 97.90 478.30 L 112.80 478.80 L 108.90 493.60 L 107.40 501.40 L 106.50 509.30 L 106.40 514.60 L 106.70 519.70 L 107.40 524.60 L 109.60 531.60 L 113.30 537.80 L 115.60 540.50 L 118.40 543.00 L 121.80 545.20 L 125.70 547.30 L 123.20 559.80 L 120.10 572.70 L 116.00 587.20 L 115.20 588.70 L 101.60 588.80 L 81.20 588.30 L 80.50 589.30 L 81.20 595.50 L 81.00 598.30 L 80.60 599.00 L 79.90 599.20 L 79.30 599.00 L 78.90 598.40 L 76.40 587.70 L 73.50 585.00 L 72.20 581.50 L 59.00 511.70 L 58.40 505.40 L 58.60 502.20 L 59.20 499.20 L 60.60 495.10 L 62.50 491.50 L 64.70 488.50 L 67.30 485.80 L 70.40 483.50 L 73.90 481.70 L 77.90 480.20 L 80.80 479.50 L 97.90 478.30 Z" fill="#134a94" fill-rule="nonzero" group-id="1" id="路径" node-id="59" stroke="none" target-height="120.900024" target-width="67.299995" target-x="58.4" target-y="478.3"></path><path d="M 909.90 478.50 L 920.80 477.90 L 932.70 477.80 L 938.70 478.30 L 944.50 479.20 L 951.90 481.40 L 955.20 482.90 L 958.20 484.90 L 960.90 487.20 L 963.30 490.00 L 966.10 494.90 L 967.90 501.30 L 968.20 507.80 L 966.80 518.10 L 953.70 582.10 L 952.40 585.30 L 951.10 586.50 L 948.40 588.10 L 948.00 588.80 L 945.90 598.50 L 944.40 601.70 L 943.30 602.00 L 942.80 601.10 L 944.80 588.80 L 944.70 588.30 L 944.20 588.10 L 903.00 588.70 L 903.40 588.40 L 903.10 588.00 L 901.40 587.20 L 904.30 580.90 L 906.70 574.30 L 908.70 567.20 L 910.40 560.10 L 912.60 545.10 L 913.40 533.70 L 913.60 522.10 L 913.30 510.70 L 912.50 499.50 L 909.90 478.50 Z" fill="#015a92" fill-rule="nonzero" group-id="1" id="路径" node-id="60" stroke="none" target-height="124.20001" target-width="66.79999" target-x="901.4" target-y="477.8"></path><g node-id="124"><path d="M 413.50 514.20 L 411.00 512.40 L 409.10 509.10 L 408.70 506.70 L 408.90 504.30 L 409.70 501.90 L 411.00 499.70 L 412.80 498.00 L 414.80 496.90 L 417.10 496.30 L 420.10 496.50 L 421.60 497.00 L 424.10 498.80 L 425.00 500.00 L 426.00 502.10 L 426.40 504.50 L 426.20 506.90 L 425.40 509.30 L 424.00 511.50 L 422.30 513.10 L 420.20 514.30 L 418.00 514.90 L 416.50 515.00 L 413.50 514.20 Z" fill="#fdfdfd" fill-rule="nonzero" group-id="1,5" id="椭圆形" node-id="61" stroke="none" target-height="18.700012" target-width="17.699982" target-x="408.7" target-y="496.3"></path></g><path d="M 687.00 532.50 L 685.90 556.10 L 673.60 555.90 L 672.50 553.00 L 671.10 551.00 L 669.60 549.50 L 668.90 542.00 L 669.10 539.70 L 669.80 537.60 L 670.80 536.10 L 672.10 535.10 L 675.70 533.70 L 687.00 532.50 Z" fill="#f96982" fill-rule="nonzero" group-id="1" id="路径" node-id="62" stroke="none" target-height="23.599976" target-width="18.099976" target-x="668.9" target-y="532.5"></path><path d="M 787.60 537.80 L 786.70 544.50 L 785.10 551.10 L 783.10 557.60 L 780.60 563.80 L 777.70 569.90 L 776.00 573.10 L 774.20 575.70 L 772.20 577.80 L 770.00 579.60 L 765.10 582.40 L 761.10 583.80 L 756.80 584.90 L 747.40 586.60 L 699.70 594.10 L 699.70 573.60 L 699.90 572.90 L 733.90 572.40 L 736.40 572.10 L 738.40 571.40 L 741.30 569.20 L 742.20 567.80 L 743.00 564.50 L 742.50 561.30 L 741.70 559.80 L 739.40 557.30 L 737.80 556.50 L 735.90 556.00 L 716.10 556.20 L 708.70 555.70 L 743.20 551.40 L 754.30 548.90 L 765.40 545.70 L 776.50 542.00 L 787.60 537.80 Z" fill="#fdfdfd" fill-rule="nonzero" group-id="1" id="路径" node-id="63" stroke="none" target-height="56.299988" target-width="87.89996" target-x="699.7" target-y="537.8"></path><path d="M 673.60 555.90 L 666.20 556.20 L 669.60 549.50 L 671.10 551.00 L 672.50 553.00 L 673.60 555.90 Z" fill="#fdfdfd" fill-rule="nonzero" group-id="1" id="路径" node-id="64" stroke="none" target-height="6.700012" target-width="7.3999634" target-x="666.2" target-y="549.5"></path><path d="M 311.10 555.80 L 333.90 557.00 L 345.60 557.10 L 397.20 556.60 L 448.80 556.70 L 500.20 556.20 L 666.20 556.20 L 673.60 555.90 L 685.90 556.10 L 708.70 555.70 L 724.30 556.30 L 733.60 555.90 L 735.90 556.00 L 737.80 556.50 L 739.40 557.30 L 741.70 559.80 L 742.90 562.90 L 742.70 566.20 L 741.30 569.20 L 740.00 570.40 L 738.40 571.40 L 736.40 572.10 L 733.90 572.40 L 717.20 572.90 L 699.90 572.90 L 699.70 573.60 L 699.70 594.10 L 699.40 592.70 L 698.70 591.90 L 697.80 591.60 L 695.90 592.10 L 693.90 593.80 L 693.80 573.60 L 693.60 573.00 L 668.60 572.80 L 667.90 573.00 L 667.70 573.70 L 667.40 600.40 L 665.60 599.60 L 663.90 599.20 L 662.20 599.20 L 660.50 599.60 L 661.00 573.60 L 660.80 572.80 L 660.10 572.60 L 637.80 572.60 L 634.40 572.00 L 631.80 572.80 L 363.40 572.90 L 362.70 573.10 L 362.50 573.70 L 360.20 796.90 L 356.50 796.30 L 356.00 794.30 L 355.20 794.10 L 341.20 795.30 L 329.60 795.90 L 329.80 772.60 L 337.80 777.50 L 345.60 781.70 L 353.20 785.10 L 353.70 785.20 L 354.10 784.50 L 356.70 573.60 L 356.50 573.00 L 355.90 572.80 L 331.80 572.90 L 331.30 573.00 L 331.10 573.60 L 330.30 619.50 L 329.60 625.00 L 330.00 641.60 L 330.10 661.90 L 330.60 669.20 L 333.40 669.40 L 331.20 681.20 L 331.00 685.20 L 330.10 768.40 L 327.70 768.20 L 324.10 769.10 L 323.80 722.00 L 323.50 721.00 L 324.70 714.60 L 324.70 573.60 L 324.40 573.00 L 323.80 572.80 L 296.20 573.40 L 285.20 573.30 L 276.30 572.50 L 272.80 571.80 L 270.90 570.90 L 269.40 569.50 L 268.40 567.70 L 267.90 565.70 L 267.80 563.60 L 268.30 561.60 L 269.20 559.70 L 270.60 558.20 L 272.40 557.10 L 274.70 556.60 L 279.60 556.40 L 311.10 555.80 Z" fill="#36359e" fill-rule="nonzero" group-id="1" id="路径" node-id="65" stroke="none" target-height="241.20001" target-width="475.10004" target-x="267.8" target-y="555.7"></path><path d="M 70.80 640.60 L 71.40 658.30 L 70.90 680.20 L 70.40 680.50 L 54.40 680.10 L 54.10 648.20 L 53.60 646.70 L 52.00 644.30 L 52.80 642.60 L 53.60 636.10 L 52.00 570.20 L 52.50 569.10 L 53.50 568.50 L 54.10 568.80 L 54.30 569.40 L 56.10 641.10 L 56.40 641.50 L 57.50 641.90 L 70.80 640.60 Z" fill="#00a980" fill-rule="nonzero" group-id="1" id="路径" node-id="66" stroke="none" target-height="112" target-width="19.400002" target-x="52" target-y="568.5"></path><path d="M 777.70 569.90 L 782.50 571.70 L 785.90 572.40 L 788.30 572.60 L 804.10 571.50 L 817.90 571.00 L 830.80 571.50 L 842.40 572.90 L 850.30 582.50 L 837.40 591.10 L 836.90 591.60 L 836.70 593.50 L 836.20 593.90 L 835.50 593.80 L 835.00 593.40 L 831.50 586.80 L 826.30 574.70 L 825.20 574.40 L 824.80 575.00 L 826.30 580.50 L 828.20 585.50 L 830.70 590.00 L 833.60 594.20 L 837.00 598.10 L 841.00 601.60 L 846.00 605.30 L 846.00 606.00 L 845.10 607.90 L 843.90 609.40 L 841.10 611.70 L 831.90 623.30 L 831.10 623.90 L 828.80 624.60 L 825.80 627.50 L 823.50 630.30 L 821.80 633.10 L 820.50 635.90 L 819.70 638.70 L 811.90 640.80 L 806.90 642.50 L 797.40 646.50 L 777.50 653.80 L 777.40 655.40 L 778.60 657.10 L 776.90 657.10 L 776.00 657.50 L 775.60 658.20 L 759.60 725.70 L 742.40 794.70 L 742.20 796.60 L 715.40 795.00 L 708.50 795.10 L 690.60 796.30 L 680.00 796.40 L 679.80 779.50 L 680.10 762.10 L 682.80 656.90 L 684.40 637.80 L 685.30 632.30 L 686.70 627.50 L 688.50 623.30 L 690.80 619.40 L 693.40 615.90 L 696.40 612.70 L 703.30 607.10 L 707.30 604.60 L 720.60 597.80 L 728.30 594.40 L 736.20 591.60 L 745.00 589.00 L 747.40 586.60 L 756.80 584.90 L 761.10 583.80 L 767.70 581.20 L 772.20 577.80 L 774.20 575.70 L 776.00 573.10 L 777.70 569.90 Z M 729.80 794.60 L 731.40 795.00 L 732.80 795.00 L 734.20 794.70 L 734.90 793.80 L 765.00 658.20 L 764.80 657.50 L 748.20 660.90 L 747.50 661.70 L 744.40 688.00 L 740.80 714.30 L 736.60 740.50 L 732.00 766.60 L 726.90 792.60 L 727.10 794.20 L 728.50 794.10 L 729.80 794.60 Z" fill="#36359e" fill-rule="nonzero" group-id="1" id="形状" node-id="67" stroke="none" target-height="226.69995" target-width="170.5" target-x="679.8" target-y="569.9"></path><path d="M 637.80 572.60 L 638.50 608.90 L 659.90 602.30 L 660.40 601.90 L 660.70 601.20 L 660.50 599.60 L 662.20 599.20 L 663.90 599.20 L 667.40 600.40 L 693.10 595.40 L 694.00 595.10 L 694.20 594.60 L 693.90 593.80 L 696.50 591.80 L 697.80 591.60 L 698.70 591.90 L 699.40 592.70 L 699.70 594.10 L 747.40 586.60 L 745.00 589.00 L 736.20 591.60 L 728.30 594.40 L 720.60 597.80 L 713.60 601.20 L 703.30 607.10 L 696.40 612.70 L 693.40 615.90 L 690.80 619.40 L 688.50 623.30 L 686.70 627.50 L 685.30 632.30 L 684.40 637.80 L 682.80 656.90 L 680.20 656.40 L 679.50 656.50 L 679.30 657.10 L 679.90 659.80 L 681.00 662.40 L 682.60 664.90 L 680.10 762.10 L 679.80 779.50 L 680.00 796.40 L 661.70 796.70 L 643.50 796.40 L 625.40 795.60 L 624.20 793.90 L 625.90 792.20 L 627.90 790.80 L 630.40 789.70 L 633.40 788.80 L 634.40 790.70 L 634.90 793.60 L 637.60 794.90 L 638.60 795.00 L 639.50 794.50 L 640.00 793.60 L 639.50 790.40 L 639.50 788.50 L 639.90 786.60 L 640.90 784.90 L 658.00 777.80 L 658.70 771.50 L 658.70 765.90 L 658.30 763.20 L 657.30 760.40 L 652.10 749.20 L 646.30 738.00 L 639.90 726.70 L 638.40 727.10 L 637.10 727.10 L 636.00 726.70 L 634.90 725.70 L 634.00 724.10 L 634.00 717.90 L 633.40 713.90 L 620.10 686.20 L 614.40 673.10 L 609.20 659.30 L 607.50 653.50 L 606.70 649.00 L 606.30 644.80 L 606.30 641.00 L 606.80 637.30 L 607.70 633.80 L 609.20 630.40 L 611.30 627.00 L 614.10 623.70 L 617.20 620.80 L 621.10 617.90 L 632.30 611.20 L 632.50 610.50 L 631.80 572.80 L 634.40 572.00 L 637.80 572.60 Z M 664.30 775.00 L 664.40 777.10 L 664.80 777.40 L 665.70 777.00 L 665.90 775.80 L 665.50 774.70 L 664.70 774.40 L 664.30 775.00 Z" fill="#191a7d" fill-rule="nonzero" group-id="1" id="形状" node-id="68" stroke="none" target-height="224.70001" target-width="141.10004" target-x="606.3" target-y="572"></path><path d="M 329.80 772.60 L 330.20 770.90 L 331.00 685.20 L 331.90 677.30 L 335.80 656.90 L 336.60 650.30 L 336.90 643.70 L 336.80 639.30 L 335.50 630.90 L 334.30 626.90 L 332.60 623.10 L 330.30 619.50 L 331.10 573.60 L 331.30 573.00 L 331.80 572.90 L 355.90 572.80 L 356.50 573.00 L 356.70 573.60 L 354.10 784.50 L 353.70 785.20 L 353.20 785.10 L 345.60 781.70 L 337.80 777.50 L 329.80 772.60 Z" fill="#fdfdfd" fill-rule="nonzero" group-id="1" id="路径" node-id="69" stroke="none" target-height="212.40002" target-width="26.900024" target-x="329.8" target-y="572.8"></path><path d="M 631.80 572.80 L 632.50 610.50 L 632.30 611.20 L 621.10 617.90 L 617.20 620.80 L 614.10 623.70 L 611.30 627.00 L 609.20 630.40 L 607.70 633.80 L 606.80 637.30 L 606.30 641.00 L 606.30 644.80 L 606.70 649.00 L 607.50 653.50 L 611.40 665.80 L 620.10 686.20 L 632.50 711.90 L 633.80 715.90 L 635.10 786.00 L 634.90 787.10 L 634.40 788.00 L 633.40 788.80 L 630.40 789.70 L 627.90 790.80 L 625.90 792.20 L 623.90 794.50 L 623.40 794.60 L 620.90 793.70 L 365.90 794.20 L 360.10 795.00 L 362.50 573.70 L 362.70 573.10 L 363.40 572.90 L 631.80 572.80 Z" fill="#fdfdfd" fill-rule="nonzero" group-id="1" id="路径" node-id="70" stroke="none" target-height="222.20001" target-width="274.99997" target-x="360.1" target-y="572.8"></path><path d="M 660.50 599.60 L 660.70 601.20 L 660.40 601.90 L 659.90 602.30 L 638.50 608.90 L 637.80 572.60 L 660.10 572.60 L 660.80 572.80 L 661.00 573.60 L 660.50 599.60 Z" fill="#fdfdfd" fill-rule="nonzero" group-id="1" id="路径" node-id="71" stroke="none" target-height="36.30005" target-width="23.200012" target-x="637.8" target-y="572.6"></path><path d="M 693.90 593.80 L 694.20 594.60 L 694.00 595.10 L 693.10 595.40 L 667.40 600.40 L 667.70 573.70 L 667.90 573.00 L 668.60 572.80 L 693.60 573.00 L 693.80 573.60 L 693.90 593.80 Z" fill="#fdfdfd" fill-rule="nonzero" group-id="1" id="路径" node-id="72" stroke="none" target-height="27.600037" target-width="26.799988" target-x="667.4" target-y="572.8"></path><path d="M 850.30 582.50 L 854.70 586.80 L 862.90 593.20 L 869.90 597.00 L 873.60 598.30 L 877.30 599.20 L 880.90 599.50 L 883.60 599.40 L 889.00 598.10 L 894.10 595.20 L 896.50 593.10 L 901.40 587.20 L 903.40 588.40 L 903.00 588.70 L 903.30 596.60 L 903.10 603.80 L 902.50 608.50 L 901.50 612.90 L 900.20 617.00 L 898.50 621.00 L 896.20 624.90 L 893.50 628.60 L 890.30 631.90 L 886.40 635.20 L 881.70 638.50 L 819.70 638.70 L 820.50 635.90 L 821.80 633.10 L 823.50 630.30 L 825.80 627.50 L 828.80 624.60 L 831.10 623.90 L 831.90 623.30 L 841.10 611.70 L 843.90 609.40 L 845.10 607.90 L 846.00 606.00 L 846.00 605.30 L 845.60 604.80 L 841.00 601.60 L 837.00 598.10 L 833.60 594.20 L 830.70 590.00 L 828.20 585.50 L 826.30 580.50 L 824.90 574.60 L 825.80 574.40 L 826.60 575.30 L 828.70 580.80 L 831.50 586.80 L 835.00 593.40 L 835.50 593.80 L 836.20 593.90 L 836.70 593.50 L 836.90 591.60 L 837.40 591.10 L 850.30 582.50 Z" fill="#191a7d" fill-rule="nonzero" group-id="1" id="路径" node-id="73" stroke="none" target-height="64.29999" target-width="83.70001" target-x="819.7" target-y="574.4"></path><path d="M 240.80 578.70 L 243.90 582.50 L 246.70 585.30 L 249.60 587.50 L 252.90 589.30 L 261.30 592.10 L 293.50 601.30 L 304.10 604.90 L 317.90 610.50 L 324.80 613.80 L 324.70 714.60 L 323.60 719.80 L 323.80 722.00 L 322.30 730.50 L 321.40 739.30 L 321.10 748.30 L 321.50 757.70 L 322.50 767.40 L 322.90 768.80 L 323.40 769.20 L 327.70 768.20 L 330.10 768.40 L 330.20 770.90 L 329.80 772.60 L 329.60 795.90 L 324.50 795.90 L 323.90 773.50 L 323.70 772.80 L 321.20 771.80 L 320.20 771.10 L 319.00 767.80 L 318.00 765.90 L 316.70 764.40 L 315.10 763.30 L 311.20 762.00 L 307.90 761.70 L 304.40 762.00 L 297.40 763.70 L 291.50 766.10 L 284.20 768.40 L 282.60 768.20 L 282.00 767.60 L 270.70 713.20 L 267.10 690.30 L 266.30 682.10 L 266.00 673.90 L 266.50 656.90 L 260.20 656.70 L 259.70 656.90 L 259.60 657.40 L 265.30 684.60 L 255.40 686.70 L 255.00 686.50 L 248.80 657.00 L 250.90 656.30 L 255.80 655.90 L 256.70 655.50 L 257.90 653.90 L 257.90 652.80 L 257.10 651.00 L 256.20 650.50 L 248.60 647.40 L 241.30 645.00 L 234.10 643.00 L 219.30 640.40 L 211.60 639.50 L 199.80 638.90 L 134.20 638.40 L 129.60 634.80 L 125.80 631.30 L 122.80 627.90 L 120.30 624.20 L 118.30 620.40 L 116.80 616.60 L 115.80 612.60 L 114.80 603.70 L 114.70 596.70 L 115.20 588.70 L 116.00 587.20 L 116.30 585.80 L 129.50 583.50 L 142.80 581.60 L 156.20 580.30 L 169.60 579.50 L 196.80 579.00 L 217.30 579.50 L 238.10 580.60 L 239.50 580.20 L 240.80 578.70 Z" fill="#191a7d" fill-rule="nonzero" group-id="1" id="路径" node-id="74" stroke="none" target-height="217.20001" target-width="215.50002" target-x="114.7" target-y="578.7"></path><path d="M 115.20 588.70 L 114.70 596.70 L 114.80 603.70 L 115.10 608.30 L 116.80 616.60 L 118.30 620.40 L 120.30 624.20 L 122.80 627.90 L 125.80 631.30 L 129.60 634.80 L 134.20 638.40 L 116.10 638.50 L 112.90 638.80 L 110.40 639.50 L 108.40 640.50 L 106.70 641.80 L 105.40 643.40 L 104.70 645.00 L 104.30 646.80 L 104.30 648.60 L 104.80 650.40 L 105.60 652.00 L 106.80 653.50 L 108.50 654.90 L 110.40 655.80 L 112.80 656.50 L 150.80 657.20 L 138.20 731.90 L 137.70 732.20 L 132.20 730.00 L 129.30 729.80 L 114.30 697.30 L 112.90 694.70 L 111.60 693.10 L 110.20 692.00 L 108.70 691.40 L 100.50 690.20 L 99.80 678.80 L 97.70 677.70 L 96.40 677.70 L 95.30 678.20 L 93.70 679.80 L 93.00 680.00 L 83.00 679.90 L 84.50 677.50 L 84.80 676.70 L 84.50 675.90 L 75.20 659.80 L 74.70 659.30 L 72.40 659.00 L 71.40 658.30 L 70.80 640.60 L 82.70 623.80 L 85.30 635.70 L 86.30 636.90 L 87.70 636.80 L 87.90 635.50 L 86.20 626.70 L 85.20 618.40 L 91.20 608.90 L 96.60 599.00 L 101.60 588.80 L 115.20 588.70 Z M 89.50 646.30 L 89.00 645.60 L 88.00 645.40 L 87.30 645.90 L 87.10 646.80 L 90.40 665.10 L 90.90 665.90 L 91.90 666.00 L 92.70 665.50 L 92.90 664.70 L 89.50 646.30 Z" fill="#fdfdfd" fill-rule="nonzero" group-id="1" id="形状" node-id="75" stroke="none" target-height="143.5" target-width="80" target-x="70.8" target-y="588.7"></path><path d="M 85.20 618.40 L 86.20 626.70 L 88.00 636.40 L 87.30 637.00 L 86.30 636.90 L 85.30 635.70 L 81.10 614.60 L 80.30 607.30 L 80.90 605.20 L 81.40 605.00 L 82.20 605.70 L 85.20 618.40 Z" fill="#015a92" fill-rule="nonzero" group-id="1" id="路径" node-id="76" stroke="none" target-height="32" target-width="7.699997" target-x="80.3" target-y="605"></path><path d="M 959.20 700.90 L 959.90 700.70 L 958.00 700.70 L 957.50 700.30 L 950.90 692.70 L 946.80 686.80 L 945.50 683.80 L 944.70 679.70 L 946.70 669.20 L 949.00 660.90 L 951.70 652.80 L 954.90 645.00 L 958.50 637.30 L 962.60 629.90 L 967.20 622.60 L 968.20 622.10 L 969.20 622.70 L 973.50 631.60 L 974.00 632.10 L 976.90 619.10 L 978.30 615.70 L 979.50 613.70 L 981.10 612.00 L 983.10 610.50 L 985.30 609.50 L 988.30 608.80 L 992.10 608.40 L 996.80 608.60 L 1001.70 609.40 L 1005.00 610.30 L 1011.20 612.90 L 1014.20 614.60 L 1019.00 618.80 L 1021.00 621.30 L 1022.50 624.00 L 1023.50 627.00 L 1024.00 630.10 L 1023.90 633.50 L 1023.00 637.30 L 1021.40 641.90 L 1018.80 647.20 L 1015.10 653.30 L 1010.40 660.00 L 1005.40 666.30 L 1000.00 672.20 L 994.20 677.80 L 988.00 683.10 L 981.50 688.00 L 974.50 692.70 L 967.10 697.00 L 959.20 700.90 Z" fill="#00cb8b" fill-rule="nonzero" group-id="1" id="路径" node-id="77" stroke="none" target-height="92.5" target-width="79.29999" target-x="944.7" target-y="608.4"></path><g node-id="125"><path d="M 941.80 613.50 L 943.00 613.90 L 943.10 614.40 L 940.50 627.80 L 939.20 627.80 L 938.70 627.00 L 941.00 614.00 L 941.80 613.50 Z" fill="#191a7d" fill-rule="nonzero" group-id="1,6" id="矩形" node-id="78" stroke="none" target-height="14.299988" target-width="4.3999634" target-x="938.7" target-y="613.5"></path></g><path d="M 330.30 619.50 L 332.60 623.10 L 334.30 626.90 L 335.50 630.90 L 336.80 639.30 L 336.90 643.70 L 336.60 650.30 L 334.70 663.40 L 333.40 669.40 L 331.10 669.40 L 330.60 669.20 L 330.40 668.70 L 329.60 625.00 L 330.30 619.50 Z" fill="#191a7d" fill-rule="nonzero" group-id="1" id="路径" node-id="79" stroke="none" target-height="49.900024" target-width="7.299988" target-x="329.6" target-y="619.5"></path><g node-id="126"><path d="M 936.30 650.00 L 935.70 648.00 L 936.00 643.50 L 936.90 639.00 L 937.60 637.50 L 938.00 637.20 L 938.30 637.60 L 938.50 639.20 L 938.30 643.70 L 937.30 648.20 L 936.30 650.00 Z" fill="#2e2b77" fill-rule="nonzero" group-id="1,7" id="椭圆形" node-id="80" stroke="none" target-height="12.799988" target-width="2.7999878" target-x="935.7" target-y="637.2"></path></g><path d="M 134.20 638.40 L 199.80 638.90 L 211.60 639.50 L 226.80 641.50 L 234.10 643.00 L 241.30 645.00 L 248.60 647.40 L 257.10 651.00 L 257.90 652.80 L 257.90 653.90 L 256.70 655.50 L 255.80 655.90 L 250.90 656.30 L 248.80 657.00 L 207.90 656.80 L 161.10 657.20 L 157.60 656.70 L 154.20 656.70 L 150.80 657.20 L 112.80 656.50 L 110.40 655.80 L 108.50 654.90 L 106.80 653.50 L 105.60 652.00 L 104.80 650.40 L 104.30 648.60 L 104.30 646.80 L 104.70 645.00 L 105.40 643.40 L 106.70 641.80 L 108.40 640.50 L 110.40 639.50 L 112.90 638.80 L 116.10 638.50 L 134.20 638.40 Z" fill="#01738f" fill-rule="nonzero" group-id="1" id="路径" node-id="81" stroke="none" target-height="18.799988" target-width="153.59999" target-x="104.3" target-y="638.4"></path><path d="M 881.70 638.50 L 903.10 638.40 L 913.30 638.90 L 915.40 639.20 L 917.00 639.90 L 918.30 641.00 L 920.10 643.80 L 920.60 645.40 L 920.50 648.90 L 919.20 652.30 L 918.00 653.70 L 916.40 655.00 L 914.60 655.90 L 912.40 656.50 L 909.70 656.80 L 864.40 656.70 L 817.50 657.00 L 811.70 656.40 L 806.60 657.20 L 778.60 657.10 L 777.40 655.40 L 777.50 653.80 L 797.40 646.50 L 806.90 642.50 L 811.90 640.80 L 819.70 638.70 L 881.70 638.50 Z" fill="#015a92" fill-rule="nonzero" group-id="1" id="路径" node-id="82" stroke="none" target-height="18.799988" target-width="143.19995" target-x="777.4" target-y="638.4"></path><g node-id="127"><path d="M 87.60 645.50 L 89.10 645.40 L 89.50 645.90 L 93.00 665.10 L 92.90 665.70 L 92.40 666.00 L 90.80 666.00 L 90.50 665.50 L 87.00 646.40 L 87.10 645.80 L 87.60 645.50 Z" fill="#36359e" fill-rule="nonzero" group-id="1,8" id="矩形" node-id="83" stroke="none" target-height="20.599976" target-width="6" target-x="87" target-y="645.4"></path></g><path d="M 219.00 657.00 L 242.30 796.90 L 234.90 796.70 L 234.20 795.50 L 207.90 656.80 L 219.00 657.00 Z" fill="#36359e" fill-rule="nonzero" group-id="1" id="路径" node-id="84" stroke="none" target-height="140.10004" target-width="34.40001" target-x="207.9" target-y="656.8"></path><path d="M 682.80 656.90 L 682.60 664.90 L 681.00 662.40 L 679.90 659.80 L 679.30 657.10 L 679.50 656.50 L 680.20 656.40 L 682.80 656.90 Z" fill="#fdfdfd" fill-rule="nonzero" group-id="1" id="路径" node-id="85" stroke="none" target-height="8.5" target-width="3.5" target-x="679.3" target-y="656.4"></path><path d="M 817.50 657.00 L 789.20 796.60 L 781.70 796.70 L 781.40 795.80 L 781.60 794.40 L 806.60 657.20 L 811.70 656.40 L 817.50 657.00 Z" fill="#36359e" fill-rule="nonzero" group-id="1" id="路径" node-id="86" stroke="none" target-height="140.29999" target-width="36.099976" target-x="781.4" target-y="656.4"></path><path d="M 874.80 656.80 L 880.50 695.40 L 891.60 796.50 L 887.70 796.20 L 886.90 795.40 L 886.70 794.60 L 869.60 691.80 L 864.40 656.70 L 874.80 656.80 Z" fill="#36359e" fill-rule="nonzero" group-id="1" id="路径" node-id="87" stroke="none" target-height="139.79999" target-width="27.199951" target-x="864.4" target-y="656.7"></path><path d="M 161.10 657.20 L 141.00 773.80 L 144.30 736.30 L 144.20 735.50 L 143.70 735.00 L 138.20 731.90 L 150.80 657.20 L 154.20 656.70 L 157.60 656.70 L 161.10 657.20 Z" fill="#191a7d" fill-rule="nonzero" group-id="1" id="路径" node-id="88" stroke="none" target-height="117.099976" target-width="22.90001" target-x="138.2" target-y="656.7"></path><path d="M 207.90 656.80 L 234.30 794.90 L 224.70 794.00 L 219.50 793.80 L 139.70 794.80 L 139.00 794.50 L 138.80 793.80 L 141.00 773.80 L 161.10 657.20 L 207.90 656.80 Z" fill="#fdfdfd" fill-rule="nonzero" group-id="1" id="路径" node-id="89" stroke="none" target-height="138.10004" target-width="95.5" target-x="138.8" target-y="656.8"></path><path d="M 248.80 657.00 L 255.00 685.90 L 253.30 686.40 L 236.10 686.70 L 234.50 687.50 L 234.00 688.20 L 234.50 704.30 L 234.30 713.50 L 233.20 721.60 L 232.50 723.80 L 230.70 726.60 L 219.00 657.00 L 248.80 657.00 Z" fill="#fdfdfd" fill-rule="nonzero" group-id="1" id="路径" node-id="90" stroke="none" target-height="69.599976" target-width="36" target-x="219" target-y="657"></path><path d="M 267.10 690.30 L 265.70 687.10 L 259.60 657.40 L 259.70 656.90 L 260.20 656.70 L 265.90 656.70 L 266.50 656.90 L 266.60 657.50 L 266.10 665.70 L 266.00 673.90 L 266.30 682.10 L 267.10 690.30 Z" fill="#fdfdfd" fill-rule="nonzero" group-id="1" id="路径" node-id="91" stroke="none" target-height="33.599976" target-width="7.5" target-x="259.6" target-y="656.7"></path><path d="M 864.40 656.70 L 869.60 691.80 L 862.90 691.20 L 861.40 691.40 L 860.30 691.90 L 859.40 693.60 L 859.20 790.20 L 859.00 791.90 L 858.40 793.20 L 857.50 794.20 L 856.20 794.80 L 795.80 793.70 L 794.10 793.90 L 790.20 795.30 L 789.60 794.20 L 817.50 657.00 L 864.40 656.70 Z" fill="#fdfdfd" fill-rule="nonzero" group-id="1" id="路径" node-id="92" stroke="none" target-height="138.59998" target-width="80" target-x="789.6" target-y="656.7"></path><path d="M 778.60 657.10 L 806.60 657.20 L 781.60 794.40 L 768.90 793.80 L 743.40 793.80 L 743.10 793.70 L 742.90 793.00 L 759.60 725.70 L 775.60 658.20 L 776.00 657.50 L 776.90 657.10 L 778.60 657.10 Z" fill="#fdfdfd" fill-rule="nonzero" group-id="1" id="路径" node-id="93" stroke="none" target-height="137.30005" target-width="63.69995" target-x="742.9" target-y="657.1"></path><path d="M 729.80 794.60 L 728.50 794.10 L 727.10 794.20 L 726.90 792.60 L 732.00 766.60 L 736.60 740.50 L 740.80 714.30 L 744.40 688.00 L 747.50 661.70 L 748.20 660.90 L 764.80 657.50 L 765.00 658.20 L 734.90 793.80 L 734.20 794.70 L 732.80 795.00 L 729.80 794.60 Z" fill="#fdfdfd" fill-rule="nonzero" group-id="1" id="路径" node-id="94" stroke="none" target-height="137.5" target-width="38.099976" target-x="726.9" target-y="657.5"></path><path d="M 71.40 658.30 L 72.40 659.00 L 74.70 659.30 L 75.20 659.80 L 84.80 676.70 L 83.00 679.90 L 70.90 680.20 L 71.40 658.30 Z" fill="#e1e6ff" fill-rule="nonzero" group-id="1" id="路径" node-id="95" stroke="none" target-height="21.900024" target-width="13.900002" target-x="70.9" target-y="658.3"></path><path d="M 934.50 666.90 L 933.90 667.90 L 932.90 668.10 L 933.40 660.00 L 934.30 659.30 L 934.90 659.50 L 935.20 660.00 L 935.30 662.60 L 934.50 666.90 Z" fill="#015a92" fill-rule="nonzero" group-id="1" id="路径" node-id="96" stroke="none" target-height="8.799988" target-width="2.3999634" target-x="932.9" target-y="659.3"></path><path d="M 934.50 666.90 L 936.70 670.50 L 938.80 673.20 L 940.80 675.20 L 942.90 676.70 L 944.90 677.70 L 944.90 681.70 L 945.50 683.80 L 946.80 686.80 L 950.90 692.70 L 957.50 700.30 L 958.00 700.70 L 959.90 700.70 L 959.20 700.90 L 964.30 705.80 L 968.60 710.60 L 972.10 715.50 L 975.00 720.30 L 972.40 727.20 L 971.70 730.30 L 971.30 735.10 L 971.40 739.90 L 972.00 744.70 L 975.70 761.10 L 973.30 759.20 L 971.50 758.40 L 970.00 758.30 L 968.20 759.00 L 966.10 757.40 L 964.50 756.60 L 962.80 756.20 L 947.80 757.10 L 944.70 756.50 L 943.20 756.60 L 941.80 757.20 L 940.30 758.60 L 940.00 751.70 L 939.80 751.00 L 932.90 751.60 L 926.90 751.80 L 921.20 751.40 L 917.20 750.20 L 901.00 746.70 L 894.70 744.30 L 889.30 741.00 L 887.20 742.00 L 885.80 742.30 L 880.50 695.40 L 882.30 694.20 L 883.90 693.60 L 889.10 692.90 L 891.00 692.10 L 925.50 669.70 L 927.30 668.80 L 929.10 668.40 L 933.40 668.20 L 934.50 666.90 Z" fill="#e5ebff" fill-rule="nonzero" group-id="1" id="路径" node-id="97" stroke="none" target-height="94.19995" target-width="95.20001" target-x="880.5" target-y="666.9"></path><path d="M 100.50 690.20 L 96.40 693.10 L 94.50 695.10 L 92.00 693.20 L 89.70 692.10 L 87.60 691.40 L 85.50 691.30 L 83.60 691.70 L 81.60 692.50 L 79.60 694.00 L 78.30 695.30 L 76.80 698.40 L 76.50 700.10 L 76.70 701.80 L 77.40 703.50 L 92.10 730.70 L 92.20 731.50 L 89.30 733.30 L 88.70 734.20 L 82.70 794.40 L 82.40 795.30 L 81.60 795.80 L 70.30 795.80 L 70.40 680.50 L 70.90 680.20 L 83.00 679.90 L 93.00 680.00 L 93.70 679.80 L 95.30 678.20 L 96.40 677.70 L 97.70 677.70 L 99.30 678.20 L 99.80 678.80 L 100.10 679.50 L 100.50 690.20 Z" fill="#3a35bc" fill-rule="nonzero" group-id="1" id="路径" node-id="98" stroke="none" target-height="118.099976" target-width="30.199997" target-x="70.3" target-y="677.7"></path><path d="M 54.40 680.10 L 70.40 680.50 L 70.30 795.80 L 37.00 795.80 L 36.40 795.60 L 36.20 795.00 L 32.00 681.10 L 32.30 680.30 L 33.10 680.00 L 54.40 680.10 Z" fill="#36359e" fill-rule="nonzero" group-id="1" id="路径" node-id="99" stroke="none" target-height="115.79999" target-width="38.4" target-x="32" target-y="680"></path><path d="M 265.30 684.60 L 265.70 687.10 L 267.10 690.30 L 270.70 713.20 L 282.00 767.60 L 282.60 768.20 L 284.20 768.40 L 291.50 766.10 L 294.30 769.20 L 297.10 771.40 L 300.00 773.00 L 302.90 774.10 L 305.90 774.50 L 309.00 774.40 L 312.30 773.70 L 315.90 772.40 L 319.80 770.30 L 320.20 771.10 L 321.20 771.80 L 323.70 772.80 L 324.50 795.90 L 284.40 796.10 L 282.10 795.20 L 279.80 793.50 L 272.80 766.30 L 266.60 739.90 L 255.40 686.70 L 265.30 684.60 Z" fill="#36359e" fill-rule="nonzero" group-id="1" id="路径" node-id="100" stroke="none" target-height="111.5" target-width="69.100006" target-x="255.4" target-y="684.6"></path><path d="M 255.00 685.90 L 255.00 686.50 L 255.40 686.70 L 266.60 739.90 L 279.40 792.60 L 280.60 794.30 L 284.40 796.10 L 273.90 797.10 L 263.40 797.60 L 252.90 797.50 L 242.30 796.90 L 230.70 726.60 L 232.50 723.80 L 233.20 721.60 L 234.30 713.50 L 234.50 704.30 L 233.90 689.10 L 234.50 687.50 L 236.10 686.70 L 253.30 686.40 L 255.00 685.90 Z" fill="#e1e6ff" fill-rule="nonzero" group-id="1" id="路径" node-id="101" stroke="none" target-height="111.69995" target-width="53.699997" target-x="230.7" target-y="685.9"></path><path d="M 100.50 690.20 L 108.70 691.40 L 110.20 692.00 L 111.60 693.10 L 112.90 694.70 L 129.30 729.80 L 127.90 733.20 L 125.90 736.40 L 123.40 739.30 L 120.20 742.10 L 118.60 742.40 L 117.40 741.40 L 113.40 733.70 L 105.30 719.70 L 103.00 716.40 L 96.60 708.90 L 94.70 705.30 L 93.90 701.00 L 94.50 695.10 L 96.40 693.10 L 100.50 690.20 Z" fill="#ecf6fe" fill-rule="nonzero" group-id="1" id="路径" node-id="102" stroke="none" target-height="52.200012" target-width="35.4" target-x="93.9" target-y="690.2"></path><path d="M 94.50 695.10 L 93.90 701.00 L 94.20 703.20 L 95.60 707.20 L 96.60 708.90 L 103.00 716.40 L 105.30 719.70 L 109.40 726.40 L 117.90 742.00 L 118.60 742.40 L 120.20 742.10 L 123.40 739.30 L 125.90 736.40 L 127.90 733.20 L 129.30 729.80 L 132.20 730.00 L 136.90 732.10 L 137.70 732.20 L 138.20 731.90 L 144.20 735.50 L 144.30 736.30 L 141.00 773.80 L 138.80 793.80 L 139.00 794.50 L 139.70 794.80 L 219.50 793.80 L 224.70 794.00 L 234.30 794.90 L 234.20 795.50 L 234.90 796.70 L 194.30 797.10 L 160.90 796.60 L 100.30 797.60 L 85.20 797.20 L 83.40 796.90 L 81.60 795.80 L 82.40 795.30 L 82.70 794.40 L 88.70 734.20 L 89.30 733.30 L 92.20 731.50 L 92.10 730.70 L 77.40 703.50 L 76.70 701.80 L 76.50 700.10 L 76.80 698.40 L 78.30 695.30 L 79.60 694.00 L 81.60 692.50 L 83.60 691.70 L 85.50 691.30 L 87.60 691.40 L 89.70 692.10 L 92.00 693.20 L 94.50 695.10 Z" fill="#e1e6ff" fill-rule="nonzero" group-id="1" id="路径" node-id="103" stroke="none" target-height="106.29999" target-width="158.4" target-x="76.5" target-y="691.3"></path><path d="M 869.60 691.80 L 886.70 794.60 L 885.10 795.20 L 875.40 795.50 L 865.70 795.40 L 856.20 794.80 L 857.50 794.20 L 858.40 793.20 L 859.00 791.90 L 859.20 790.20 L 859.40 693.60 L 860.30 691.90 L 861.40 691.40 L 862.90 691.20 L 869.60 691.80 Z" fill="#ecf6fe" fill-rule="nonzero" group-id="1" id="路径" node-id="104" stroke="none" target-height="104.29999" target-width="30.5" target-x="856.2" target-y="691.2"></path><path d="M 975.00 720.30 L 979.20 725.80 L 980.70 729.80 L 981.00 732.40 L 981.10 750.40 L 980.90 768.60 L 980.20 787.20 L 975.70 761.10 L 973.00 749.90 L 971.40 739.90 L 971.30 735.10 L 971.70 730.30 L 973.50 723.80 L 975.00 720.30 Z" fill="#ecf6fe" fill-rule="nonzero" group-id="1" id="路径" node-id="105" stroke="none" target-height="66.900024" target-width="9.799988" target-x="971.3" target-y="720.3"></path><path d="M 323.80 722.00 L 324.10 769.10 L 323.40 769.20 L 322.90 768.80 L 322.50 767.40 L 321.50 757.70 L 321.10 748.30 L 321.40 739.30 L 322.30 730.50 L 323.80 722.00 Z" fill="#fdfdfd" fill-rule="nonzero" group-id="1" id="路径" node-id="106" stroke="none" target-height="47.200012" target-width="3" target-x="321.1" target-y="722"></path><path d="M 634.00 724.10 L 634.90 725.70 L 636.00 726.70 L 637.10 727.10 L 638.40 727.10 L 639.90 726.70 L 640.90 784.90 L 639.90 786.60 L 639.50 788.50 L 639.50 790.40 L 640.00 793.60 L 639.50 794.50 L 638.60 795.00 L 635.60 794.10 L 634.90 793.60 L 634.40 790.70 L 633.40 788.80 L 634.40 788.00 L 634.90 787.10 L 635.10 786.00 L 634.00 724.10 Z" fill="#36359e" fill-rule="nonzero" group-id="1" id="路径" node-id="107" stroke="none" target-height="70.900024" target-width="7.5" target-x="633.4" target-y="724.1"></path><path d="M 640.90 784.90 L 639.90 726.70 L 646.30 738.00 L 652.10 749.20 L 657.30 760.40 L 658.30 763.20 L 658.80 768.70 L 658.00 777.80 L 640.90 784.90 Z" fill="#fdfdfd" fill-rule="nonzero" group-id="1" id="路径" node-id="108" stroke="none" target-height="58.200012" target-width="18.899963" target-x="639.9" target-y="726.7"></path><path d="M 921.20 751.40 L 920.20 792.70 L 920.70 793.80 L 941.60 793.80 L 942.50 793.40 L 942.90 792.40 L 940.30 758.60 L 941.80 757.20 L 943.20 756.60 L 944.70 756.50 L 947.80 757.10 L 962.80 756.20 L 964.50 756.60 L 966.10 757.40 L 968.20 759.00 L 970.00 758.30 L 971.50 758.40 L 973.30 759.20 L 975.70 761.10 L 980.20 787.20 L 981.00 795.70 L 980.80 796.40 L 980.20 796.60 L 947.50 797.20 L 895.50 797.30 L 892.20 796.90 L 891.60 796.50 L 885.80 742.30 L 887.20 742.00 L 889.30 741.00 L 894.70 744.30 L 901.00 746.70 L 917.20 750.20 L 921.20 751.40 Z" fill="#cbd2ff" fill-rule="nonzero" group-id="1" id="路径" node-id="109" stroke="none" target-height="56.299988" target-width="95.20001" target-x="885.8" target-y="741"></path><path d="M 940.30 758.60 L 942.80 792.90 L 942.50 793.40 L 941.60 793.80 L 921.40 793.90 L 920.70 793.80 L 920.20 792.70 L 921.20 751.40 L 926.90 751.80 L 932.90 751.60 L 939.80 751.00 L 940.00 751.70 L 940.30 758.60 Z" fill="#fdfdfd" fill-rule="nonzero" group-id="1" id="路径" node-id="110" stroke="none" target-height="42.900024" target-width="22.599976" target-x="920.2" target-y="751"></path><path d="M 319.80 770.30 L 315.90 772.40 L 312.30 773.70 L 309.00 774.40 L 305.90 774.50 L 302.90 774.10 L 300.00 773.00 L 297.10 771.40 L 294.30 769.20 L 291.50 766.10 L 297.40 763.70 L 300.90 762.70 L 307.90 761.70 L 311.20 762.00 L 313.30 762.50 L 316.70 764.40 L 318.00 765.90 L 319.00 767.80 L 319.80 770.30 Z" fill="#f96982" fill-rule="nonzero" group-id="1" id="路径" node-id="111" stroke="none" target-height="12.799988" target-width="28.299988" target-x="291.5" target-y="761.7"></path><path d="M 664.30 775.00 L 664.40 774.60 L 665.10 774.40 L 665.90 775.80 L 665.70 777.00 L 664.80 777.40 L 664.30 776.70 L 664.30 775.00 Z" fill="#7375ae" fill-rule="nonzero" group-id="1" id="路径" node-id="112" stroke="none" target-height="3" target-width="1.6000366" target-x="664.3" target-y="774.4"></path><path d="M 742.90 793.00 L 743.10 793.70 L 743.40 793.80 L 768.90 793.80 L 781.60 794.40 L 781.40 795.80 L 781.70 796.70 L 744.40 797.30 L 742.20 796.60 L 742.40 794.70 L 742.90 793.00 Z" fill="#cbd2ff" fill-rule="nonzero" group-id="1" id="路径" node-id="113" stroke="none" target-height="4.299988" target-width="39.5" target-x="742.2" target-y="793"></path><path d="M 624.20 793.90 L 625.40 795.60 L 619.80 797.00 L 360.20 796.90 L 360.10 795.00 L 365.90 794.20 L 620.90 793.70 L 623.40 794.60 L 623.90 794.50 L 624.20 793.90 Z" fill="#cbd2ff" fill-rule="nonzero" group-id="1" id="路径" node-id="114" stroke="none" target-height="3.2999878" target-width="265.30002" target-x="360.1" target-y="793.7"></path><path d="M 856.20 794.80 L 865.70 795.40 L 875.40 795.50 L 885.10 795.20 L 886.70 794.60 L 886.90 795.40 L 887.70 796.20 L 792.20 797.50 L 789.20 796.60 L 789.60 794.20 L 790.20 795.30 L 794.10 793.90 L 795.80 793.70 L 856.20 794.80 Z" fill="#cbd2ff" fill-rule="nonzero" group-id="1" id="路径" node-id="115" stroke="none" target-height="3.7999878" target-width="98.5" target-x="789.2" target-y="793.7"></path><path d="M 356.50 796.30 L 341.20 795.30 L 355.20 794.10 L 356.00 794.30 L 356.50 796.30 Z" fill="#a6b1fe" fill-rule="nonzero" group-id="1" id="路径" node-id="116" stroke="none" target-height="2.2000122" target-width="15.299988" target-x="341.2" target-y="794.1"></path></g></svg>